<?xml version="1.0" encoding="UTF-8"?>
<svg xmlns="http://www.w3.org/2000/svg" width="300" height="300" viewBox="0 0 300 300">
  <path id="polygon1" style="fill:#FFFFFF" d="m 63,162 27,45 h 133 l 67,-45 Z" />
  <rect id="rect2" style="fill:#9D6E48" x="150.0" y="32.0" width="7.0" height="130.0" />
  <path id="polygon3" style="fill:#345DA9" d="m 150,34 -19,15 14,-2 2,1 2,1 Z" />
  <path id="polygon4" style="fill:#8D8D8D" d="m 157,54 18,25 -1,17 11,6 -7,10 16,12 2,7 -6,8 2,7 19,5 5,3 h -59 Z" />
  <path id="polygon5" style="fill:#8D8D8D" d="m 150,74 -4,17 -7,8 4,15 -2,9 -4,3 -6,3 1,10 10,-3 -16,6 -7,5 h 29 Z" />
</svg>
