<?xml version="1.0" encoding="UTF-8"?>
<svg xmlns="http://www.w3.org/2000/svg" width="300" height="300" viewBox="0 0 300 300">
  <path id="polygon1" style="fill:#000000" d="m 151,76 -13,15 v 193 l 12,12 12,-10 v -195 Z" />
  <path id="polygon2" style="fill:#8D8D8D" d="m 164,106 20,-27 21,-18 31,-13 23,5 20,33 8,33 2,39 -11,19 -22,5 -92,-1 Z" />
  <path id="polygon3" style="fill:#8D8D8D" d="m 136,110 -17,-28 -9,-11 -25,-10 -26,-13 -23,8 -19,32 -11,27 -4,32 13,31 h 119 Z" />
  <path id="polygon4" style="fill:#8D8D8D" d="m 46,181 -18,46 22,28 27,18 35,10 23,-9 v -94 Z" />
  <path id="polygon5" style="fill:#8D8D8D" d="m 165,185 89,-1 18,40 -17,27 -19,16 -45,16 -27,-7 Z" />
  <line id="line6" style="stroke:#8D8D8D;stroke-width:1" x1="167" y1="47" x2="159" y2="82" />
  <line id="line7" style="stroke:#8D8D8D;stroke-width:1" x1="136" y1="47" x2="145" y2="81" />
  <circle id="circle8" style="fill:#8D8D8D" cx="169.0" cy="49.0" r="4.0" />
  <circle id="circle9" style="fill:#8D8D8D" cx="137.0" cy="48.0" r="3.0" />
  <circle id="circle10" style="fill:#8D8D8D" cx="136.5" cy="47.5" r="3.5" />
  <circle id="circle11" style="fill:#8D8D8D" cx="137.0" cy="47.0" r="4.0" />
</svg>
