<?xml version="1.0" encoding="UTF-8"?>
<svg xmlns="http://www.w3.org/2000/svg" width="300" height="300" viewBox="0 0 300 300">
  <circle id="circle1" style="fill:#8D8D8D" cx="150.0" cy="150.0" r="135.0" />
  <circle id="circle2" style="fill:none;stroke:#000000;stroke-width:1" cx="150.0" cy="147.0" r="130.0" />
  <line id="line3" style="stroke:#000000;stroke-width:1" x1="130" y1="92" x2="171" y2="92" />
  <line id="line4" style="stroke:#000000;stroke-width:1" x1="123" y1="79" x2="177" y2="79" />
  <rect id="rect5" style="fill:#8D8D8D" x="57.0" y="101.0" width="185.0" height="32.0" />
  <rect id="rect6" style="fill:none;stroke:#000000;stroke-width:1" x="45.0" y="180.0" width="210.0" height="15.0" />
  <rect id="rect7" style="fill:none;stroke:#000000;stroke-width:1" x="75.0" y="120.0" width="150.0" height="15.0" />
  <path id="polygon8" style="fill:none;stroke:#000000;stroke-width:1" d="m 81,226 -11,15 16,7 7,-13 -4,-3 19,11 -11,13 21,-9 v 18 l 5,-17 19,-1 -13,6 1,18 15,-2 -14,-10 31,-14 -9,17 15,6 29,-9 -20,-4 10,-10 -13,-2 19,-8 16,16 -16,-17 32,10 -17,-17 32,13 -18,-22 Z" />
  <rect id="rect9" style="fill:#8D8D8D" x="91.0" y="210.0" width="131.0" height="16.0" />
  <path id="polygon10" style="fill:none;stroke:#000000;stroke-width:1" d="m 65,70 26,-20 45,-15 h 45 l 45,30 20,21 -5,-21 -45,-15 -30,-15 -45,15 h -30 l -30,45 -7,-15 7,-15 Z" />
  <path id="polygon11" style="fill:none;stroke:#000000;stroke-width:1" d="m 90,135 h -30 v 45 h 30 v -45 h 30 v 45 h 30 v -45 h 30 v 45 h 30 v -45 h 30 v 45 h -30 v -45 Z" />
</svg>
