<?xml version="1.0" encoding="UTF-8"?>
<svg xmlns="http://www.w3.org/2000/svg" width="300" height="300" viewBox="0 0 300 300">
  <path id="polygon1" style="fill:#FFFFFF" d="m 56,133 -22,-6 -22,-22 9,21 2,20 -7,17 -6,31 22,-17 23,-4 Z" />
  <path id="polygon2" style="fill:#8D8D8D" d="m 156,229 -38,13 -51,6 h -30 l 14,-26 -2,-54 Z" />
  <path id="polygon3" style="fill:#8D8D8D" d="m 30,60 15,15 15,30 -10,31 100,-83 -61,3 Z" />
  <path id="polygon4" style="fill:#8D8D8D" d="m 50,132 96,-80 95,20 27,47 23,28 -20,9 20,8 -27,44 -53,31 -63,-8 -100,-54 Z" />
  <circle id="circle5" style="fill:#FFFFFF" cx="252.0" cy="131.0" r="15.0" />
  <circle id="circle6" style="fill:#000000" cx="247.0" cy="133.0" r="6.0" />
  <path id="polygon7" style="fill:#FFFFFF" d="m 159,228 1,66 22,-13 24,-45 Z" />
  <path id="polygon8" style="fill:#8D8D8D" d="m 102,189 7,14 Z" />
  <path id="polygon9" style="fill:#FFFFFF" d="m 215,182 -34,10 -10,-15 -2,-13 -17,-22 2,-19 16,-4 53,44 Z" />
  <line id="line10" style="stroke:#000000;stroke-width:1" x1="240" y1="77" x2="162" y2="71" />
  <line id="line11" style="stroke:#000000;stroke-width:1" x1="164" y1="71" x2="98" y2="78" />
  <line id="line12" style="stroke:#000000;stroke-width:1" x1="96" y1="79" x2="62" y2="105" />
  <line id="line13" style="stroke:#000000;stroke-width:1" x1="50" y1="179" x2="88" y2="217" />
  <line id="line14" style="stroke:#000000;stroke-width:1" x1="88" y1="217" x2="149" y2="230" />
</svg>
