<?xml version="1.0" encoding="UTF-8"?>
<svg xmlns="http://www.w3.org/2000/svg" width="300" height="300" viewBox="0 0 300 300">
  <path id="polygon1" style="fill:#8D8D8D" d="m 15,241 60,30 14,-26 46,26 15,-25 45,25 90,-150 -50,-25 20,-35 -60,-30 -14,24 -46,-24 -90,150 4,2 Z" />
  <circle id="circle2" style="fill:#FFFFFF" cx="165.0" cy="255.0" r="33.0" />
  <circle id="circle3" style="fill:none;stroke:#000000;stroke-width:1" cx="165.0" cy="255.0" r="33.0" />
  <circle id="circle4" style="fill:#FFFFFF" cx="105.0" cy="255.0" r="33.0" />
  <circle id="circle5" style="fill:#FFFFFF" cx="135.0" cy="195.0" r="33.0" />
  <circle id="circle6" style="fill:#8D8D8D" cx="255.0" cy="105.0" r="33.0" />
  <circle id="circle7" style="fill:#8D8D8D" cx="225.0" cy="45.0" r="33.0" />
  <circle id="circle8" style="fill:#8D8D8D" cx="165.0" cy="45.0" r="33.0" />
  <circle id="circle9" style="fill:none;stroke:#000000;stroke-width:1" cx="135.0" cy="195.0" r="33.0" />
  <circle id="circle10" style="fill:none;stroke:#000000;stroke-width:1" cx="105.0" cy="255.0" r="33.0" />
  <circle id="circle11" style="fill:#FFFFFF" cx="45.0" cy="255.0" r="33.0" />
  <circle id="circle12" style="fill:none;stroke:#000000;stroke-width:1" cx="45.0" cy="255.0" r="15.0" />
  <circle id="circle13" style="fill:#FFFFFF" cx="75.0" cy="195.0" r="33.0" />
  <circle id="circle14" style="fill:none;stroke:#000000;stroke-width:1" cx="75.0" cy="195.0" r="33.0" />
  <line id="line15" style="stroke:#000000;stroke-width:1" x1="195" y1="30" x2="105" y2="180" />
  <line id="line16" style="stroke:#000000;stroke-width:1" x1="255" y1="60" x2="165" y2="210" />
  <circle id="circle17" style="fill:none;stroke:#000000;stroke-width:1" cx="45.0" cy="255.0" r="33.0" />
  <circle id="circle18" style="fill:none;stroke:#000000;stroke-width:1" cx="105.0" cy="255.0" r="15.0" />
  <circle id="circle19" style="fill:none;stroke:#000000;stroke-width:1" cx="165.0" cy="255.0" r="15.0" />
  <circle id="circle20" style="fill:none;stroke:#000000;stroke-width:1" cx="135.0" cy="195.0" r="15.0" />
  <circle id="circle21" style="fill:none;stroke:#000000;stroke-width:1" cx="75.0" cy="195.0" r="15.0" />
  <line id="line22" style="stroke:#000000;stroke-width:1" x1="195" y1="270" x2="285" y2="120" />
  <line id="line23" style="stroke:#000000;stroke-width:1" x1="15" y1="240" x2="45" y2="180" />
  <line id="line24" style="stroke:#000000;stroke-width:1" x1="45" y1="180" x2="135" y2="30" />
</svg>
