<?xml version="1.0" encoding="UTF-8"?>
<svg xmlns="http://www.w3.org/2000/svg" width="300" height="300" viewBox="0 0 300 300">
  <path id="polygon1" style="fill:#8D8D8D" d="m 283,153 5,-4 -17,-3 30,-1 -1,-7 -53,-19 -57,-12 -86,10 -50,16 -15,1 -29,-35 -1,13 10,30 -10,33 1,10 30,-27 29,-4 -5,10 16,-3 6,-5 46,4 77,4 Z" />
  <path id="polygon2" style="fill:#8D8D8D" d="m 199,161 -47,5 -15,-2 32,-10 Z" />
  <path id="polygon3" style="fill:#8D8D8D" d="m 188,108 -16,-25 -12,-9 -4,2 3,21 -6,15 Z" />
  <circle id="circle4" style="fill:#000000" cx="262.0" cy="135.0" r="6.0" />
  <line id="line5" style="stroke:#000000;stroke-width:1" x1="222" y1="134" x2="222" y2="150" />
  <line id="line6" style="stroke:#000000;stroke-width:1" x1="217" y1="134" x2="217" y2="150" />
  <line id="line7" style="stroke:#000000;stroke-width:1" x1="212" y1="134" x2="212" y2="150" />
  <path id="polygon8" style="fill:#8D8D8D" d="m 78,125 -16,-7 1,12 Z" />
  <path id="polygon9" style="fill:#8D8D8D" d="m 121,157 -16,4 -4,-5 5,-4 Z" />
</svg>
