<?xml version="1.0" encoding="UTF-8"?>
<svg xmlns="http://www.w3.org/2000/svg" width="300" height="300" viewBox="0 0 300 300">
  <path id="circle1" style="fill:#8d8d8d" d="m 150,5 c -22.09139,0 -40,17.90861 -40,40 -2.1e-4,13.845312 5.23169,26.706196 17,34 V 90 H 105 L 60,150 75,180 111.36328,134.54492 120,195 l -30,90 15,15 h 30 l 15,-75 15,75 h 30 l 15,-15 -30,-90 8.63672,-60.45508 L 225,180 240,150 195,90 H 172 V 79 C 184.05001,71.418157 189.37685,58.786099 190,45 190,22.90861 172.09139,5 150,5 Z" />
</svg>
