<?xml version="1.0" encoding="UTF-8" standalone="no"?>
<svg
   width="300"
   height="300"
   viewBox="0 0 300 300"
   version="1.1"
   id="svg1"
   sodipodi:docname="plant.svg"
   inkscape:version="1.4.2 (ebf0e940d0, 2025-05-08)"
   xmlns:inkscape="http://www.inkscape.org/namespaces/inkscape"
   xmlns:sodipodi="http://sodipodi.sourceforge.net/DTD/sodipodi-0.dtd"
   xmlns="http://www.w3.org/2000/svg"
   xmlns:svg="http://www.w3.org/2000/svg">
  <defs
     id="defs1" />
  <sodipodi:namedview
     id="namedview1"
     pagecolor="#ffffff"
     bordercolor="#000000"
     borderopacity="0.25"
     inkscape:showpageshadow="2"
     inkscape:pageopacity="0.0"
     inkscape:pagecheckerboard="0"
     inkscape:deskcolor="#d1d1d1"
     inkscape:zoom="1.8691189"
     inkscape:cx="167.45858"
     inkscape:cy="162.37597"
     inkscape:window-width="1920"
     inkscape:window-height="1011"
     inkscape:window-x="0"
     inkscape:window-y="0"
     inkscape:window-maximized="1"
     inkscape:current-layer="svg1" />
  <path
     id="rect1"
     style="fill:#2cd13b"
     d="M 150 15 L 120 45 L 135 90 L 135 105 L 90 60 L 45 45 L 75 105 L 135 135 L 135 180 L 90 135 L 45 120 L 75 180 L 135 210 L 135 255 L 90 210 L 45 195 L 75 255 L 135 285 L 135 300 L 165 300 L 165 285 L 225 255 L 255 195 L 210 210 L 165 255 L 165 210 L 225 180 L 255 120 L 210 135 L 165 180 L 165 135 L 225 105 L 255 45 L 210 60 L 165 105 L 165 90 L 180 45 L 150 15 z "
     inkscape:label="Shape" />
</svg>
