<?xml version="1.0" encoding="UTF-8"?>
<svg xmlns="http://www.w3.org/2000/svg" width="300" height="300" viewBox="0 0 300 300">
  <path id="rect1" style="fill:#8d8d8d" d="M 150 15 L 120 45 L 135 90 L 135 105 L 90 60 L 45 45 L 75 105 L 135 135 L 135 180 L 90 135 L 45 120 L 75 180 L 135 210 L 135 255 L 90 210 L 45 195 L 75 255 L 135 285 L 135 300 L 165 300 L 165 285 L 225 255 L 255 195 L 210 210 L 165 255 L 165 210 L 225 180 L 255 120 L 210 135 L 165 180 L 165 135 L 225 105 L 255 45 L 210 60 L 165 105 L 165 90 L 180 45 L 150 15 z " />
</svg>
