<?xml version="1.0" encoding="UTF-8" standalone="no"?>
<svg
   width="300"
   height="300"
   viewBox="0 0 300 300"
   version="1.1"
   id="svg1"
   sodipodi:docname="wolf.svg"
   inkscape:version="1.4.2 (ebf0e940d0, 2025-05-08)"
   xmlns:inkscape="http://www.inkscape.org/namespaces/inkscape"
   xmlns:sodipodi="http://sodipodi.sourceforge.net/DTD/sodipodi-0.dtd"
   xmlns="http://www.w3.org/2000/svg"
   xmlns:svg="http://www.w3.org/2000/svg">
  <defs
     id="defs1" />
  <sodipodi:namedview
     id="namedview1"
     pagecolor="#ffffff"
     bordercolor="#000000"
     borderopacity="0.25"
     inkscape:showpageshadow="2"
     inkscape:pageopacity="0.0"
     inkscape:pagecheckerboard="0"
     inkscape:deskcolor="#d1d1d1"
     inkscape:zoom="1.3216667"
     inkscape:cx="155.10718"
     inkscape:cy="170.6179"
     inkscape:window-width="1920"
     inkscape:window-height="1011"
     inkscape:window-x="0"
     inkscape:window-y="0"
     inkscape:window-maximized="1"
     inkscape:current-layer="svg1" />
  <path
     id="polygon1"
     style="fill:#8d8d8d"
     d="m 229,42 c -3.22396,5.487492 -8.62955,10.059208 -10.38183,16.164464 C 217.64302,62.424933 218.37896,67.921907 213,69 c -10.66667,12.333333 -21.33333,24.666667 -32,37 -4.6837,-0.0428 -10.22658,-4.01184 -14.00096,0.10067 -3.73696,2.60179 -7.18891,6.1535 -12.12546,4.75693 -17.61596,-0.61219 -35.23191,-1.22236 -52.82589,0.22202 -12.88085,0.85089 -26.729361,0.8815 -39.01058,2.24069 -5.650585,2.26649 -12.335839,3.35552 -17.356239,6.33916 -3.277327,1.73884 -8.660518,-2.19065 -12.460999,0.26724 -6.774157,2.13565 -13.919913,4.57669 -19.564638,8.71973 -3.576476,3.5882 -7.9152493,6.67345 -7.588905,15.08318 2.1150581,17.47177 2.6175752,35.08799 0.9739691,52.62561 C 6.0535544,208.5721 5.0089927,220.78475 4,233 c 6.361452,-11.18304 13.609117,-21.97992 19.413446,-33.40572 6.693408,-18.56461 6.148563,-34.79226 8.44232,-37.61355 2.20009,5.14644 6.0735,9.16602 8.744814,13.88214 C 47.400386,185.24191 54.200193,194.62096 61,204 l -4,38 c 11.341956,9.65646 22.547345,19.47451 34,29 3.359587,-0.84199 12.60422,2.46332 8.767952,-3.44973 C 97.514308,264.40959 98.406346,256.80518 93.802115,257 c -6.243795,1.41585 -9.835499,-4.80763 -14.577578,-7.71747 -2.422784,-3.05981 -9.001814,-4.79637 -8.811091,-8.68825 L 75,225 97,249 c 8.26143,1.72619 16.49557,3.72788 25,3 -3.01129,-3.16358 -5.26041,-7.75748 -8.7301,-10.06084 -4.53844,-1.20973 -11.1037,1.2858 -13.495075,-3.849 -3.364085,-4.99415 -8.217465,-9.57846 -10.690199,-14.81788 l 4.901702,-42.15119 c 12.420212,2.47907 24.702512,6.1992 37.211552,7.87891 10.46587,-0.4987 21.26277,1.52871 31.29681,-2.26525 3.44253,-0.0516 10.33375,-5.31652 9.09817,1.2198 2.13572,25.01515 4.27143,50.0303 6.40714,75.04545 3,4.66667 6,9.33333 9,14 5.06311,-2.17476 10.94244,-3.22601 13.75214,-8.50256 2.36306,-3.37707 -6.86344,-4.16594 -9.37446,-6.45452 -5.96087,-0.6898 -4.35097,-6.42572 -4.74368,-10.82684 -0.94705,-10.45887 -0.39534,-20.86243 1.22227,-31.22665 0.89036,-7.67942 1.78071,-15.35884 2.67107,-23.03826 1.49089,14.34961 2.98177,28.69922 4.47266,43.04883 6.33333,6.66667 12.66667,13.33333 19,20 3.5475,-2.2542 9.90448,-2.77205 8,-8.39577 1.55626,-5.77825 -6.28748,-4.56261 -9.82423,-6.5515 -2.39352,-5.32259 -5.97559,-10.77733 -7.17577,-16.51799 0.17518,-22.92313 -0.35045,-45.97639 0.26299,-68.81815 3.17644,-9.5714 8.26159,-18.41336 13.71047,-26.81174 C 223.98231,127.2699 228.99115,121.63495 234,116 c 12.66667,2.66667 25.33333,5.33333 38,8 4.33333,-4.66667 8.66667,-9.33333 13,-14 -8.33333,-7 -16.66667,-14 -25,-21 L 257,70 244.05664,66.658203 C 244.37109,59.105469 244.68555,51.552734 245,44 c -4.10352,3.023437 -8.20703,6.046875 -12.31055,9.070312 C 231.45963,49.380208 230.22982,45.690104 229,42 Z"
     sodipodi:nodetypes="ccccccccccccccccccccccccccccccccccccccccccccccccccccccccc"
     inkscape:label="Shape" />
</svg>
