<?xml version="1.0" encoding="UTF-8"?>
<svg xmlns="http://www.w3.org/2000/svg" width="300" height="300" viewBox="0 0 300 300">
  <path id="polygon1" style="fill:none;stroke:#8D8D8D;stroke-width:1" d="m 301,133 v 31 l -26,28 -46,32 -62,12 h -30 l -63,-12 -44,-30 -27,-32 -1,-24 28,-34 46,-30 58,-12 h 34 l 60,12 46,31 Z" />
  <path id="polygon2" style="fill:#8D8D8D" d="m 300,150 v 15 l -30,30 -45,30 -62,11 h -29 l -59,-11 -45,-30 -28,-33 v -22 l 28,-35 45,-30 61,-12 h 29 l 60,12 45,30 30,30 Z" />
  <line id="line3" style="stroke:#000000;stroke-width:1" x1="300" y1="155" x2="5" y2="155" />
  <path id="polygon4" style="fill:#FFFFFF" d="m 28,193 v -86 l 23,-16 v 118 Z" />
  <rect id="rect5" style="fill:#FFFFFF" x="90.0" y="150.0" width="120.0" height="10.0" />
  <rect id="rect6" style="fill:#FFFFFF" x="198.0" y="141.0" width="7.0" height="29.0" />
  <rect id="rect7" style="fill:#FFFFFF" x="183.0" y="141.0" width="7.0" height="29.0" />
  <rect id="rect8" style="fill:#FFFFFF" x="168.0" y="141.0" width="7.0" height="29.0" />
  <rect id="rect9" style="fill:#FFFFFF" x="153.0" y="141.0" width="7.0" height="29.0" />
  <rect id="rect10" style="fill:#FFFFFF" x="138.0" y="141.0" width="7.0" height="29.0" />
  <rect id="rect11" style="fill:#FFFFFF" x="123.0" y="141.0" width="7.0" height="29.0" />
  <rect id="rect12" style="fill:#FFFFFF" x="108.0" y="141.0" width="7.0" height="29.0" />
  <rect id="rect13" style="fill:#FFFFFF" x="93.0" y="141.0" width="7.0" height="29.0" />
  <path id="polygon14" style="fill:#FFFFFF" d="m 272,193 v -86 l -23,-16 v 118 Z" />
</svg>
