<?xml version="1.0" encoding="UTF-8"?>
<svg xmlns="http://www.w3.org/2000/svg" width="300" height="300" viewBox="0 0 300 300">
  <line id="line1" style="stroke:#8D8D8D;stroke-width:1" x1="285" y1="240" x2="210" y2="240" />
  <line id="line2" style="stroke:#8D8D8D;stroke-width:1" x1="195" y1="300" x2="165" y2="255" />
  <line id="line3" style="stroke:#8D8D8D;stroke-width:1" x1="15" y1="240" x2="90" y2="240" />
  <line id="line4" style="stroke:#8D8D8D;stroke-width:1" x1="285" y1="285" x2="195" y2="240" />
  <line id="line5" style="stroke:#8D8D8D;stroke-width:1" x1="105" y1="300" x2="135" y2="255" />
  <line id="line6" style="stroke:#000000;stroke-width:1" x1="150" y1="270" x2="150" y2="285" />
  <line id="line7" style="stroke:#000000;stroke-width:1" x1="15" y1="75" x2="15" y2="120" />
  <path id="polygon8" style="fill:#8D8D8D" d="m 300,15 -15,15 h -30 l -30,45 -30,-15 60,-45 Z" />
  <path id="polygon9" style="fill:#8D8D8D" d="m 285,135 h -75 l -30,15 v -105 l 105,45 Z" />
  <path id="polygon10" style="fill:#8D8D8D" d="m 120,45 v 165 h 60 v -165 Z" />
  <path id="polygon11" style="fill:#8D8D8D" d="m 180,195 -15,105 75,-15 15,-60 30,-30 Z" />
  <path id="polygon12" style="fill:#8D8D8D" d="m 180,225 15,60 -30,15 h -15 v -45 l 15,-30 Z" />
  <path id="polygon13" style="fill:#8D8D8D" d="m 195,195 v -30 l 30,-15 30,-15 h 30 v 60 Z" />
  <path id="polygon14" style="fill:#8D8D8D" d="m 15,135 h 75 l 30,15 v -105 l -105,45 Z" />
  <path id="polygon15" style="fill:#8D8D8D" d="m 120,195 15,105 -75,-15 -15,-60 -30,-30 Z" />
  <path id="polygon16" style="fill:#8D8D8D" d="m 120,225 -15,60 30,15 h 15 v -45 l -15,-30 Z" />
  <path id="polygon17" style="fill:#8D8D8D" d="m 105,195 v -30 l -30,-15 -30,-15 h -30 v 60 Z" />
  <path id="polygon18" style="fill:#8D8D8D" d="m 285,120 -15,-30 15,-75 h 15 Z" />
  <line id="line19" style="stroke:#8D8D8D;stroke-width:1" x1="15" y1="285" x2="105" y2="240" />
  <path id="polygon20" style="fill:#8D8D8D" d="m 15,120 15,-30 -15,-75 h -15 Z" />
  <path id="polygon21" style="fill:#8D8D8D" d="m 0,15 15,15 h 30 l 30,45 30,-15 -60,-45 Z" />
  <line id="line22" style="stroke:#000000;stroke-width:1" x1="164" y1="262" x2="209" y2="262" />
  <line id="line23" style="stroke:#000000;stroke-width:1" x1="223" y1="231" x2="208" y2="261" />
  <line id="line24" style="stroke:#000000;stroke-width:1" x1="136" y1="262" x2="91" y2="262" />
  <line id="line25" style="stroke:#000000;stroke-width:1" x1="77" y1="231" x2="92" y2="261" />
</svg>
