<?xml version="1.0" encoding="UTF-8"?>
<svg xmlns="http://www.w3.org/2000/svg" width="300" height="300" viewBox="0 0 300 300">
  <path id="polygon1" style="fill:none;stroke:#000000;stroke-width:1" d="m 60,240 6,17 24,28 44,14 h 30 l 45,-15 25,-25 6,-19 Z" />
  <rect id="rect2" style="fill:#8D8D8D" x="60.0" y="75.0" width="180.0" height="165.0" />
  <path id="polygon3" style="fill:#8D8D8D" d="m 60,238 6,18 24,27 45,15 h 30 l 45,-15 25,-27 5,-18 Z" />
  <path id="polygon4" style="fill:#8D8D8D" d="m 60,75 6,-18 24,-27 45,-15 h 30 l 45,15 25,27 5,18 Z" />
  <path id="polygon5" style="fill:#8D8D8D" d="m 60,75 6,18 24,27 45,15 h 30 l 45,-15 25,-27 5,-18 Z" />
  <path id="polygon6" style="fill:none;stroke:#000000;stroke-width:1" d="m 59,75 7,-18 23,-27 45,-15 h 30 l 45,15 25,26 5,19 -4,16 -26,29 -45,15 h -30 l -45,-15 -25,-30 Z" />
  <line id="line7" style="stroke:#000000;stroke-width:1" x1="210" y1="120" x2="210" y2="285" />
  <line id="line8" style="stroke:#000000;stroke-width:1" x1="90" y1="120" x2="90" y2="285" />
  <line id="line9" style="stroke:#000000;stroke-width:1" x1="125" y1="131" x2="125" y2="296" />
  <line id="line10" style="stroke:#000000;stroke-width:1" x1="65" y1="93" x2="65" y2="258" />
  <line id="line11" style="stroke:#000000;stroke-width:1" x1="175" y1="131" x2="175" y2="296" />
  <line id="line12" style="stroke:#000000;stroke-width:1" x1="235" y1="93" x2="235" y2="258" />
  <path id="polygon13" style="fill:none;stroke:#000000;stroke-width:1" d="m 112,52 v 14 l 15,-15 35,13 8,23 15,-2 7,-14 -12,-17 -25,-15 -28,-3 Z" />
</svg>
