<?xml version="1.0" encoding="UTF-8"?>
<svg xmlns="http://www.w3.org/2000/svg" width="300" height="300" viewBox="0 0 300 300">
  <rect id="rect1" style="fill:#8D8D8D" x="127.0" y="79.0" width="45.0" height="15.0" />
  <path id="polygon2" style="fill:#59B03C" d="m 105,90 -45,105 30,15 45,-105 Z" />
  <path id="polygon3" style="fill:#59B03C" d="m 195,90 45,105 -30,15 -45,-105 Z" />
  <circle id="circle4" style="fill:#8D8D8D" cx="150.0" cy="45.0" r="40.0" />
  <path id="polygon5" style="fill:#59B03C" d="m 105,90 15,105 -30,90 15,15 h 30 l 15,-75 15,75 h 30 l 15,-15 -30,-90 15,-105 Z" />
  <path id="polygon6" style="fill:#9D6E48" d="m 120,90 h -15 l 75,105 v -30 Z" />
  <line id="line7" style="stroke:#9D6E48;stroke-width:1" x1="109" y1="105" x2="139" y2="105" />
  <line id="line8" style="stroke:#9D6E48;stroke-width:1" x1="122" y1="125" x2="151" y2="117" />
  <line id="line9" style="stroke:#9D6E48;stroke-width:1" x1="137" y1="143" x2="159" y2="134" />
  <line id="line10" style="stroke:#9D6E48;stroke-width:1" x1="158" y1="179" x2="181" y2="158" />
  <line id="line11" style="stroke:#9D6E48;stroke-width:1" x1="146" y1="160" x2="169" y2="146" />
  <rect id="rect12" style="fill:#9D6E48" x="120.0" y="193.0" width="60.0" height="8.0" />
  <path id="polygon13" style="fill:#9D6E48" d="m 122,4 -15,12 -5,23 3,14 43,-19 44,-7 -3,-10 -17,-15 -27,-2 Z" />
  <path id="polygon14" style="fill:#000000" d="m 183,90 57,-75 7,7 -54,68 Z" />
  <rect id="rect15" style="fill:#9D6E48" x="114.0" y="187.0" width="14.0" height="21.0" />
  <rect id="rect16" style="fill:#9D6E48" x="177.0" y="187.0" width="14.0" height="21.0" />
</svg>
