<?xml version="1.0" encoding="UTF-8"?>
<svg xmlns="http://www.w3.org/2000/svg" width="300" height="300" viewBox="0 0 300 300">
  <path id="polygon1" style="fill:#8D8D8D" d="m 87,267 19,23 39,2 12,-4 18,4 h 34 l -2,-11 -17,-5 -16,1 -18,-6 -2,-10 3,-16 -6,-15 5,-9 15,-12 43,-44 17,6 h 8 l 24,-17 18,-17 13,-1 3,-10 -2,-7 -16,-2 -38,28 1,-17 20,4 20,-8 6,-16 -19,-20 -22,-15 -21,-1 -13,4 -5,12 -18,24 -39,-5 -32,10 -35,22 -23,36 -4,35 8,21 14,22 -14,-10 -19,-56 3,-30 33,-48 33,-16 31,-10 56,-34 29,-36 -50,-1 -39,-6 -47,24 -45,9 -38,57 -12,66 23,88 45,25 Z" />
  <path id="polygon2" style="fill:#000000" d="m 237,85 12,-1 6,8 -9,3 Z" />
  <line id="line3" style="stroke:#000000;stroke-width:1" x1="221" y1="82" x2="213" y2="93" />
  <line id="line4" style="stroke:#000000;stroke-width:1" x1="253" y1="119" x2="266" y2="124" />
  <line id="line5" style="stroke:#000000;stroke-width:1" x1="278" y1="110" x2="278" y2="116" />
  <line id="line6" style="stroke:#000000;stroke-width:1" x1="149" y1="229" x2="135" y2="211" />
  <line id="line7" style="stroke:#000000;stroke-width:1" x1="134" y1="211" x2="115" y2="207" />
  <line id="line8" style="stroke:#000000;stroke-width:1" x1="117" y1="207" x2="106" y2="211" />
  <line id="line9" style="stroke:#000000;stroke-width:1" x1="91" y1="268" x2="131" y2="290" />
  <line id="line10" style="stroke:#000000;stroke-width:1" x1="220" y1="82" x2="213" y2="79" />
  <line id="line11" style="stroke:#000000;stroke-width:1" x1="286" y1="126" x2="294" y2="128" />
  <line id="line12" style="stroke:#000000;stroke-width:1" x1="193" y1="284" x2="206" y2="285" />
</svg>
