<?xml version="1.0" encoding="UTF-8"?>
<svg xmlns="http://www.w3.org/2000/svg" width="300" height="300" viewBox="0 0 300 300">
  <rect id="rect1" style="fill:#8D8D8D" x="0.0" y="0.0" width="300.0" height="300.0" />
  <line id="line2" style="stroke:#000000;stroke-width:1" x1="0" y1="30" x2="45" y2="15" />
  <line id="line3" style="stroke:#000000;stroke-width:1" x1="45" y1="15" x2="120" y2="30" />
  <line id="line4" style="stroke:#000000;stroke-width:1" x1="120" y1="30" x2="180" y2="45" />
  <line id="line5" style="stroke:#000000;stroke-width:1" x1="180" y1="45" x2="225" y2="45" />
  <line id="line6" style="stroke:#000000;stroke-width:1" x1="225" y1="45" x2="165" y2="60" />
  <line id="line7" style="stroke:#000000;stroke-width:1" x1="165" y1="60" x2="120" y2="75" />
  <line id="line8" style="stroke:#000000;stroke-width:1" x1="120" y1="75" x2="30" y2="60" />
  <line id="line9" style="stroke:#000000;stroke-width:1" x1="30" y1="60" x2="0" y2="60" />
  <line id="line10" style="stroke:#000000;stroke-width:1" x1="300" y1="30" x2="270" y2="45" />
  <line id="line11" style="stroke:#000000;stroke-width:1" x1="270" y1="45" x2="255" y2="60" />
  <line id="line12" style="stroke:#000000;stroke-width:1" x1="255" y1="60" x2="300" y2="60" />
  <path id="polygon13" style="fill:none;stroke:#000000;stroke-width:1" d="m 15,120 75,-30 46,5 74,-20 60,15 30,30 -30,30 -75,15 -45,-15 h -90 l -30,-15 Z" />
  <path id="polygon14" style="fill:none;stroke:#000000;stroke-width:1" d="m 63,134 103,1 64,7 40,-22 -60,-15 -94,15 -28,2 Z" />
  <path id="polygon15" style="fill:none;stroke:#000000;stroke-width:1" d="m 22,45 62,8 60,-4 -94,-18 Z" />
  <line id="line16" style="stroke:#000000;stroke-width:1" x1="0" y1="180" x2="15" y2="180" />
  <line id="line17" style="stroke:#000000;stroke-width:1" x1="15" y1="180" x2="105" y2="195" />
  <line id="line18" style="stroke:#000000;stroke-width:1" x1="105" y1="195" x2="180" y2="195" />
  <line id="line19" style="stroke:#000000;stroke-width:1" x1="225" y1="210" x2="165" y2="225" />
  <line id="line20" style="stroke:#000000;stroke-width:1" x1="165" y1="225" x2="60" y2="225" />
  <line id="line21" style="stroke:#000000;stroke-width:1" x1="60" y1="225" x2="0" y2="210" />
  <line id="line22" style="stroke:#000000;stroke-width:1" x1="300" y1="180" x2="264" y2="191" />
  <line id="line23" style="stroke:#000000;stroke-width:1" x1="255" y1="225" x2="300" y2="210" />
  <line id="line24" style="stroke:#000000;stroke-width:1" x1="16" y1="196" x2="116" y2="211" />
  <line id="line25" style="stroke:#000000;stroke-width:1" x1="180" y1="300" x2="105" y2="285" />
  <line id="line26" style="stroke:#000000;stroke-width:1" x1="135" y1="255" x2="240" y2="240" />
  <line id="line27" style="stroke:#000000;stroke-width:1" x1="240" y1="240" x2="300" y2="255" />
  <line id="line28" style="stroke:#000000;stroke-width:1" x1="135" y1="255" x2="105" y2="285" />
  <line id="line29" style="stroke:#000000;stroke-width:1" x1="180" y1="0" x2="240" y2="15" />
  <line id="line30" style="stroke:#000000;stroke-width:1" x1="240" y1="15" x2="300" y2="0" />
  <line id="line31" style="stroke:#000000;stroke-width:1" x1="0" y1="300" x2="45" y2="285" />
  <line id="line32" style="stroke:#000000;stroke-width:1" x1="45" y1="285" x2="45" y2="270" />
  <line id="line33" style="stroke:#000000;stroke-width:1" x1="45" y1="270" x2="0" y2="255" />
  <path id="polygon34" style="fill:none;stroke:#000000;stroke-width:1" d="m 150,270 75,30 75,-15 -72,-21 Z" />
  <line id="line35" style="stroke:#000000;stroke-width:1" x1="223" y1="209" x2="255" y2="225" />
  <line id="line36" style="stroke:#000000;stroke-width:1" x1="179" y1="196" x2="227" y2="183" />
  <line id="line37" style="stroke:#000000;stroke-width:1" x1="228" y1="183" x2="266" y2="192" />
</svg>
