<?xml version="1.0" encoding="UTF-8"?>
<svg xmlns="http://www.w3.org/2000/svg" width="300" height="300" viewBox="0 0 300 300">
  <path id="polygon1" style="fill:#8D8D8D" d="m 90,117 -19,17 157,-1 -18,-16 Z" />
  <path id="polygon2" style="fill:#8D8D8D" d="m 150,8 -32,2 -22,7 -11,13 -1,234 5,18 16,11 44,1 43,-1 17,-11 6,-17 -1,-234 -13,-14 -22,-7 Z" />
  <path id="polygon3" style="fill:#000000" d="m 94,129 11,-9 h 90 l 9,8 -24,22 h -60 Z" />
  <path id="polygon4" style="fill:#000000" d="m 90,270 15,-15 v -105 l -15,-15 Z" />
  <path id="polygon5" style="fill:#000000" d="m 101,279 19,7 h 60 l 18,-5 -3,-11 h -90 Z" />
  <path id="polygon6" style="fill:#000000" d="m 210,270 -15,-15 v -105 l 15,-15 Z" />
  <path id="polygon7" style="fill:#FFFFFF" d="m 201,16 v 10 l -22,-6 v -10 Z" />
  <path id="polygon8" style="fill:#FFFFFF" d="m 99,16 v 10 l 22,-6 v -10 Z" />
  <line id="line9" style="stroke:#000000;stroke-width:1" x1="130" y1="14" x2="168" y2="14" />
  <line id="line10" style="stroke:#000000;stroke-width:1" x1="130" y1="18" x2="168" y2="18" />
  <line id="line11" style="stroke:#000000;stroke-width:1" x1="130" y1="11" x2="168" y2="11" />
  <line id="line12" style="stroke:#000000;stroke-width:1" x1="185" y1="29" x2="194" y2="112" />
  <line id="line13" style="stroke:#000000;stroke-width:1" x1="115" y1="29" x2="106" y2="112" />
  <line id="line14" style="stroke:#8D8D8D;stroke-width:1" x1="210" y1="180" x2="195" y2="180" />
  <line id="line15" style="stroke:#8D8D8D;stroke-width:1" x1="195" y1="225" x2="210" y2="240" />
  <line id="line16" style="stroke:#8D8D8D;stroke-width:1" x1="105" y1="225" x2="90" y2="240" />
  <line id="line17" style="stroke:#8D8D8D;stroke-width:1" x1="90" y1="180" x2="105" y2="180" />
</svg>
