<?xml version="1.0" encoding="UTF-8"?>
<svg xmlns="http://www.w3.org/2000/svg" width="300" height="300" viewBox="0 0 300 300">
  <rect id="rect1" style="fill:#8D8D8D" x="0.0" y="60.0" width="300.0" height="210.0" />
  <rect id="rect2" style="fill:#000000" x="130.0" y="196.0" width="38.0" height="60.0" />
  <rect id="rect3" style="fill:none;stroke:#000000;stroke-width:1" x="0.0" y="255.0" width="300.0" height="15.0" />
  <path id="polygon4" style="fill:#8D8D8D" d="m 0,60 150,-45 150,45 Z" />
  <path id="polygon5" style="fill:none;stroke:#000000;stroke-width:1" d="m 0,60 150,-45 150,45 Z" />
  <circle id="circle6" style="fill:#FFFFFF" cx="150.0" cy="41.0" r="15.0" />
  <circle id="circle7" style="fill:none;stroke:#000000;stroke-width:1" cx="150.0" cy="40.0" r="15.0" />
  <rect id="rect8" style="fill:none;stroke:#000000;stroke-width:1" x="0.0" y="60.0" width="300.0" height="15.0" />
  <rect id="rect9" style="fill:none;stroke:#000000;stroke-width:1" x="218.0" y="75.0" width="37.0" height="15.0" />
  <rect id="rect10" style="fill:none;stroke:#000000;stroke-width:1" x="218.0" y="240.0" width="37.0" height="15.0" />
  <rect id="rect11" style="fill:none;stroke:#000000;stroke-width:1" x="224.0" y="90.0" width="25.0" height="150.0" />
  <rect id="rect12" style="fill:none;stroke:#000000;stroke-width:1" x="45.0" y="75.0" width="37.0" height="15.0" />
  <rect id="rect13" style="fill:none;stroke:#000000;stroke-width:1" x="45.0" y="240.0" width="37.0" height="15.0" />
  <rect id="rect14" style="fill:none;stroke:#000000;stroke-width:1" x="51.0" y="90.0" width="25.0" height="150.0" />
  <rect id="rect15" style="fill:none;stroke:#000000;stroke-width:1" x="90.0" y="240.0" width="37.0" height="15.0" />
  <rect id="rect16" style="fill:none;stroke:#000000;stroke-width:1" x="90.0" y="75.0" width="37.0" height="15.0" />
  <rect id="rect17" style="fill:none;stroke:#000000;stroke-width:1" x="96.0" y="90.0" width="25.0" height="150.0" />
  <rect id="rect18" style="fill:none;stroke:#000000;stroke-width:1" x="179.0" y="90.0" width="25.0" height="150.0" />
  <rect id="rect19" style="fill:none;stroke:#000000;stroke-width:1" x="173.0" y="75.0" width="37.0" height="15.0" />
  <rect id="rect20" style="fill:none;stroke:#000000;stroke-width:1" x="173.0" y="240.0" width="37.0" height="15.0" />
  <rect id="rect21" style="fill:none;stroke:#000000;stroke-width:1" x="269.0" y="90.0" width="25.0" height="150.0" />
  <rect id="rect22" style="fill:none;stroke:#000000;stroke-width:1" x="263.0" y="75.0" width="37.0" height="15.0" />
  <rect id="rect23" style="fill:none;stroke:#000000;stroke-width:1" x="263.0" y="240.0" width="37.0" height="15.0" />
  <rect id="rect24" style="fill:none;stroke:#000000;stroke-width:1" x="0.0" y="240.0" width="37.0" height="15.0" />
  <rect id="rect25" style="fill:none;stroke:#000000;stroke-width:1" x="6.0" y="90.0" width="25.0" height="150.0" />
  <rect id="rect26" style="fill:none;stroke:#000000;stroke-width:1" x="0.0" y="75.0" width="37.0" height="15.0" />
  <line id="line27" style="stroke:#000000;stroke-width:1" x1="112" y1="260" x2="184" y2="260" />
  <line id="line28" style="stroke:#000000;stroke-width:1" x1="105" y1="265" x2="196" y2="265" />
</svg>
