<?xml version="1.0" encoding="UTF-8"?>
<svg xmlns="http://www.w3.org/2000/svg" width="300" height="300" viewBox="0 0 300 300">
  <path id="polygon1" style="fill:#8D8D8D" d="m 165,210 v 15 l -30,30 -30,15 h -15 l -15,-15 v -15 l 15,-30 30,-15 15,-30 30,-30 v -30 l -15,-30 v -15 h -15 l -15,-15 v -15 l 15,-15 h 15 l 30,15 v 15 h 15 l 15,15 15,45 v 30 l -15,15 v 15 l -15,30 -15,15 Z" />
  <line id="line2" style="stroke:#000000;stroke-width:1" x1="135" y1="255" x2="90" y2="210" />
  <line id="line3" style="stroke:#000000;stroke-width:1" x1="165" y1="225" x2="120" y2="195" />
  <line id="line4" style="stroke:#000000;stroke-width:1" x1="135" y1="165" x2="180" y2="210" />
  <line id="line5" style="stroke:#000000;stroke-width:1" x1="150" y1="150" x2="201" y2="186" />
  <line id="line6" style="stroke:#000000;stroke-width:1" x1="165" y1="135" x2="210" y2="150" />
  <line id="line7" style="stroke:#000000;stroke-width:1" x1="165" y1="120" x2="225" y2="120" />
  <line id="line8" style="stroke:#000000;stroke-width:1" x1="165" y1="106" x2="221" y2="90" />
  <line id="line9" style="stroke:#000000;stroke-width:1" x1="157" y1="91" x2="210" y2="60" />
  <line id="line10" style="stroke:#000000;stroke-width:1" x1="150" y1="60" x2="180" y2="45" />
  <line id="line11" style="stroke:#000000;stroke-width:1" x1="120" y1="30" x2="96" y2="26" />
  <line id="line12" style="stroke:#000000;stroke-width:1" x1="124" y1="0" x2="135" y2="15" />
</svg>
