<?xml version="1.0" encoding="UTF-8"?>
<svg xmlns="http://www.w3.org/2000/svg" width="300" height="300" viewBox="0 0 300 300">
  <path id="polygon1" style="fill:#8D8D8D" d="m 137,105 -13,-22 -21,-7 -26,-1 -24,29 -6,32 Z" />
  <path id="polygon2" style="fill:#8D8D8D" d="m 226,194 -3,35 -16,14 -29,-6 -9,-34 -2,-28 Z" />
  <path id="polygon3" style="fill:#8D8D8D" d="m 137,195 -13,22 -21,7 -26,1 -24,-29 -6,-32 Z" />
  <path id="polygon4" style="fill:#8D8D8D" d="m 40,123 -8,-14 -16,-1 -16,22 v 21 l 7,31 16,8 17,-11 7,-34 Z" />
  <path id="polygon5" style="fill:#8D8D8D" d="m 45,120 45,-15 105,-15 80,30 19,32 -9,13 8,6 -23,24 -60,15 h -60 l -105,-30 Z" />
  <circle id="circle6" style="fill:#ECEC29" cx="257.0" cy="141.0" r="13.0" />
  <circle id="circle7" style="fill:#000000" cx="255.0" cy="142.0" r="7.0" />
  <line id="line8" style="stroke:#000000;stroke-width:1" x1="48" y1="121" x2="133" y2="96" />
  <line id="line9" style="stroke:#000000;stroke-width:1" x1="48" y1="179" x2="133" y2="204" />
  <path id="polygon10" style="fill:#8D8D8D" d="m 241,106 v -29 l -24,-6 -27,4 -23,24 15,26 Z" />
  <line id="line11" style="stroke:#000000;stroke-width:1" x1="226" y1="102" x2="158" y2="95" />
  <line id="line12" style="stroke:#000000;stroke-width:1" x1="171" y1="208" x2="225" y2="205" />
  <path id="polygon13" style="fill:#FFFFFF" d="m 252,111 -20,-8 -19,29 -3,33 13,28 6,11 18,-3 -10,-31 -1,-33 Z" />
  <path id="polygon14" style="fill:#FFFFFF" d="m 135,98 5,39 -5,67 19,6 13,-1 3,-33 -10,-20 3,-30 8,-9 -15,-21 Z" />
  <path id="polygon15" style="fill:#000000" d="m 192,117 -21,1 -9,8 -4,22 2,17 8,10 20,8 23,3 6,-1 -11,-4 -34,-10 -8,-15 2,-23 8,-12 Z" />
  <path id="polygon16" style="fill:#FFFFFF" d="m 40,121 6,26 -4,16 -5,16 19,-1 9,-19 2,-31 -8,-12 Z" />
</svg>
