<?xml version="1.0" encoding="UTF-8"?>
<svg xmlns="http://www.w3.org/2000/svg" width="300" height="300" viewBox="0 0 300 300">
  <path id="polygon1" style="fill:#8D8D8D" d="m 135,205 -15,30 h 60 l -15,-30 Z" />
  <path id="polygon2" style="fill:none;stroke:#000000;stroke-width:1" d="m 135,205 -15,30 h 60 l -15,-30 Z" />
  <line id="line3" style="stroke:#8D8D8D;stroke-width:1" x1="75" y1="30" x2="195" y2="30" />
  <path id="polygon4" style="fill:#8D8D8D" d="m 195,150 15,15 h 15 l 15,-15 v -15 l -15,-15 h -15 l -15,15 Z" />
  <path id="polygon5" style="fill:none;stroke:#000000;stroke-width:1" d="m 195,150 15,15 h 15 l 15,-15 v -15 l -15,-15 h -15 l -15,15 Z" />
  <path id="polygon6" style="fill:#8D8D8D" d="m 75,75 30,-30 h 90 l 30,30 v 60 l -30,30 h -90 l -30,-30 Z" />
  <path id="polygon7" style="fill:none;stroke:#000000;stroke-width:1" d="m 75,75 30,-30 h 90 l 30,30 v 45 v 15 l -30,30 h -90 l -30,-30 Z" />
  <path id="polygon8" style="fill:#000000" d="m 217,90 -7,-15 -30,-15 v 30 Z" />
  <path id="polygon9" style="fill:#000000" d="m 83,90 7,-15 30,-15 v 30 Z" />
  <path id="polygon10" style="fill:none;stroke:#000000;stroke-width:1" d="m 135,165 -15,-30 15,-60 15,-15 15,15 15,60 -15,30 Z" />
  <circle id="circle11" style="fill:#8D8D8D" cx="135.0" cy="30.0" r="15.0" />
  <circle id="circle12" style="fill:none;stroke:#000000;stroke-width:1" cx="135.0" cy="30.0" r="15.0" />
  <line id="line13" style="stroke:#8D8D8D;stroke-width:1" x1="150" y1="0" x2="150" y2="45" />
  <path id="polygon14" style="fill:#ECEC29" d="m 90,165 15,45 h 90 l 15,-45 Z" />
  <line id="line15" style="stroke:#ECEC29;stroke-width:1" x1="210" y1="165" x2="245" y2="239" />
  <line id="line16" style="stroke:#ECEC29;stroke-width:1" x1="237" y1="221" x2="194" y2="207" />
  <rect id="rect17" style="fill:#ECEC29" x="221.0" y="238.0" width="40.0" height="7.0" />
  <line id="line18" style="stroke:#ECEC29;stroke-width:1" x1="90" y1="165" x2="55" y2="239" />
  <line id="line19" style="stroke:#ECEC29;stroke-width:1" x1="63" y1="221" x2="106" y2="207" />
  <rect id="rect20" style="fill:#ECEC29" x="39.0" y="238.0" width="40.0" height="7.0" />
  <path id="polygon21" style="fill:none;stroke:#000000;stroke-width:1" d="m 90,165 15,45 h 90 l 15,-45 Z" />
  <rect id="rect22" style="fill:none;stroke:#000000;stroke-width:1" x="221.0" y="237.0" width="41.0" height="8.0" />
  <rect id="rect23" style="fill:none;stroke:#000000;stroke-width:1" x="38.0" y="237.0" width="41.0" height="8.0" />
</svg>
