<?xml version="1.0" encoding="UTF-8"?>
<svg xmlns="http://www.w3.org/2000/svg" width="300" height="300" viewBox="0 0 300 300">
  <rect id="rect1" style="fill:#8D8D8D" x="123.0" y="76.0" width="53.0" height="19.0" />
  <path id="polygon2" style="fill:#FFFFFF" d="m 105,90 -45,105 30,15 25,-48 69,1 26,47 30,-15 -45,-105 Z" />
  <path id="polygon3" style="fill:#345DA9" d="m 180,195 h -60 l -30,90 15,15 h 30 l 15,-75 15,75 h 30 l 15,-15 Z" />
  <circle id="circle4" style="fill:#8D8D8D" cx="150.0" cy="45.0" r="40.0" />
  <line id="line5" style="stroke:#000000;stroke-width:1" x1="148" y1="143" x2="150" y2="196" />
  <rect id="rect6" style="fill:#000000" x="116.0" y="186.0" width="66.0" height="12.0" />
  <circle id="circle7" style="fill:#FFFFFF" cx="156.5" cy="147.5" r="4.5" />
  <circle id="circle8" style="fill:#FFFFFF" cx="156.5" cy="170.5" r="4.5" />
  <rect id="rect9" style="fill:#000000" x="179.0" y="164.0" width="4.0" height="22.0" />
  <path id="polygon10" style="fill:#F16A15" d="m 180,90 h 15 v 75 v 30 h -45 v -75 l 30,-30 Z" />
  <path id="polygon11" style="fill:#F16A15" d="m 120,90 h -15 v 75 v 30 h 45 v -75 l -30,-30 Z" />
  <rect id="rect12" style="fill:#000000" x="135.0" y="114.0" width="15.0" height="6.0" />
  <rect id="rect13" style="fill:#000000" x="135.0" y="144.0" width="15.0" height="6.0" />
  <rect id="rect14" style="fill:#000000" x="135.0" y="174.0" width="15.0" height="6.0" />
  <path id="polygon15" style="fill:#F16A15" d="m 105,42 6,-26 17,-14 21,-2 29,6 12,12 2,10 28,1 -4,5 -15,5 -34,-4 Z" />
  <path id="polygon16" style="fill:#9D6E48" d="m 54,253 v -15 l 165,-165 8,5 Z" />
  <path id="polygon17" style="fill:#000000" d="m 15,285 v -30 l 15,-30 h 15 l 30,30 v 15 l -30,15 Z" />
</svg>
