<?xml version="1.0" encoding="UTF-8"?>
<svg xmlns="http://www.w3.org/2000/svg" width="300" height="300" viewBox="0 0 300 300">
  <path id="polygon1" style="fill:#8D8D8D" d="m 180,195 h -60 l -30,90 15,15 h 30 l 15,-75 15,75 h 30 l 15,-15 Z" />
  <path id="polygon2" style="fill:#FFFFFF" d="m 120,90 h -15 l -45,105 30,15 30,-60 v 45 h 60 v -45 l 30,60 30,-15 -45,-105 h -15 l -15,15 -15,60 -15,-60 -15,-15 Z" />
  <path id="polygon3" style="fill:#FFFFFF" d="m 123,90 26,51 28,-51 Z" />
  <rect id="rect4" style="fill:#8D8D8D" x="123.0" y="76.0" width="53.0" height="16.0" />
  <circle id="circle5" style="fill:#8D8D8D" cx="150.0" cy="45.0" r="40.0" />
  <line id="line6" style="stroke:#345DA9;stroke-width:1" x1="121" y1="90" x2="194" y2="90" />
  <line id="line7" style="stroke:#000000;stroke-width:1" x1="148" y1="143" x2="150" y2="196" />
  <rect id="rect8" style="fill:#000000" x="116.0" y="186.0" width="66.0" height="12.0" />
  <circle id="circle9" style="fill:#FFFFFF" cx="156.5" cy="147.5" r="4.5" />
  <circle id="circle10" style="fill:#FFFFFF" cx="156.5" cy="170.5" r="4.5" />
  <rect id="rect11" style="fill:#000000" x="179.0" y="164.0" width="4.0" height="22.0" />
  <path id="polygon12" style="fill:#D73229" d="m 180,90 h 15 l -12,70 -3,35 h -30 v -60 l 30,-45 Z" />
  <path id="polygon13" style="fill:#D73229" d="m 120,90 h -15 l 9,71 6,34 h 30 v -60 l -30,-45 Z" />
  <path id="polygon14" style="fill:#D73229" d="m 155,91 -27,-14 v 24 Z" />
  <rect id="rect15" style="fill:#000000" x="118.0" y="129.0" width="23.0" height="11.0" />
  <path id="polygon16" style="fill:#D73229" d="m 145,91 27,-14 v 24 Z" />
</svg>
