<?xml version="1.0" encoding="UTF-8"?>
<svg xmlns="http://www.w3.org/2000/svg" width="300" height="300" viewBox="0 0 300 300">
  <rect id="rect1" style="fill:#8D8D8D" x="30.0" y="90.0" width="180.0" height="105.0" />
  <path id="polygon2" style="fill:#8D8D8D" d="m 296,190 v -40 l -37,-16 -15,-30 -34,1 v 85 Z" />
  <rect id="rect3" style="fill:#FFFFFF" x="195.0" y="60.0" width="0.0" height="45.0" />
  <path id="polygon4" style="fill:#000000" d="m 238,112 14,29 h -33 l -1,-29 Z" />
  <circle id="circle5" style="fill:#000000" cx="255.0" cy="195.0" r="21.0" />
  <circle id="circle6" style="fill:#000000" cx="90.0" cy="195.0" r="21.0" />
  <rect id="rect7" style="fill:#FFFFFF" x="288.0" y="158.0" width="9.0" height="15.0" />
  <rect id="rect8" style="fill:#ECEC29" x="289.0" y="172.0" width="9.0" height="8.0" />
  <rect id="rect9" style="fill:#D73229" x="29.0" y="151.0" width="269.0" height="7.0" />
  <line id="line10" style="stroke:#000000;stroke-width:1" x1="210" y1="90" x2="210" y2="195" />
  <rect id="rect11" style="fill:#000000" x="83.0" y="116.0" width="45.0" height="17.0" />
  <rect id="rect12" style="fill:#000000" x="153.0" y="111.0" width="23.0" height="23.0" />
  <line id="line13" style="stroke:#8D8D8D;stroke-width:1" x1="165" y1="105" x2="165" y2="135" />
  <rect id="rect14" style="fill:#8D8D8D" x="14.0" y="186.0" width="19.0" height="9.0" />
  <line id="line15" style="stroke:#345DA9;stroke-width:1" x1="45" y1="135" x2="75" y2="120" />
  <line id="line16" style="stroke:#345DA9;stroke-width:1" x1="75" y1="135" x2="45" y2="120" />
  <line id="line17" style="stroke:#345DA9;stroke-width:1" x1="60" y1="112" x2="60" y2="142" />
</svg>
