<?xml version="1.0" encoding="UTF-8"?>
<svg xmlns="http://www.w3.org/2000/svg" width="300" height="300" viewBox="0 0 300 300">
  <path id="polygon1" style="fill:#000000" d="m 140,145 30,105 75,-60 -11,-68 13,-15 13,-28 v -24 l -15,-15 -30,-8 -30,8 -30,-9 -33,10 -14,12 -80,65 82,-3 30,15 Z" />
  <path id="polygon2" style="fill:#8D8D8D" d="m 135,151 30,105 75,-60 -15,-75 16,-16 14,-29 v -15 l -15,-15 -30,-8 -30,8 -30,-9 -30,9 -15,15 -58,47 58,13 30,15 Z" />
  <path id="polygon3" style="fill:#FFFFFF" d="m 60,181 -15,75 h 120 l -15,-75 15,-15 15,-30 v -15 l -15,-15 -30,-8 -30,8 -30,-9 -29,10 -17,11 1,18 15,30 15,15 Z" />
  <path id="polygon4" style="fill:none;stroke:#000000;stroke-width:1" d="m 45,255 h 120 l -15,-75 15,-15 15,-30 v -15 l -15,-15 -30,-8 -30,8 -29,-9 -30,10 -17,12 1,17 15,30 15,15 Z" />
  <line id="line5" style="stroke:#000000;stroke-width:1" x1="165" y1="255" x2="239" y2="195" />
</svg>
