<?xml version="1.0" encoding="UTF-8"?>
<svg xmlns="http://www.w3.org/2000/svg" width="300" height="300" viewBox="0 0 300 300">
  <path id="polygon1" style="fill:#8D8D8D" d="m 150,165 59,34 16,26 v 30 l -30,15 -30,-15 -15,-15 Z" />
  <path id="polygon2" style="fill:#8D8D8D" d="m 150,165 -61,33 -14,27 v 30 l 30,15 30,-15 15,-15 Z" />
  <path id="polygon3" style="fill:#8D8D8D" d="m 139,148 -39,-43 -45,-15 h -30 l -15,15 v 30 l 15,45 15,15 45,-1 54,-31 Z" />
  <path id="polygon4" style="fill:#8D8D8D" d="m 162,150 38,-45 45,-15 h 30 l 15,15 v 30 l -15,45 -15,15 h -45 l -53,-30 Z" />
  <path id="polygon5" style="fill:#000000" d="m 150,255 -15,-30 -15,-75 15,-30 15,-15 15,15 15,30 -15,75 Z" />
  <circle id="circle6" style="fill:#000000" cx="150.0" cy="105.0" r="15.0" />
  <line id="line7" style="stroke:#000000;stroke-width:1" x1="150" y1="105" x2="195" y2="60" />
  <line id="line8" style="stroke:#000000;stroke-width:1" x1="150" y1="105" x2="105" y2="60" />
</svg>
