<?xml version="1.0" encoding="UTF-8"?>
<svg xmlns="http://www.w3.org/2000/svg" width="300" height="300" viewBox="0 0 300 300">
  <path id="polygon1" style="fill:#8D8D8D" d="m 300,165 v 30 l -30,15 -87,-6 -3,36 -15,30 v 30 h -45 l -120,-60 45,-75 30,-75 v -45 l 30,-30 30,30 h 30 l 15,-30 h 45 l 30,15 h -30 l -15,30 15,30 v 15 Z" />
  <path id="polygon2" style="fill:#000000" d="m 0,240 120,60 h 45 v -15 h -45 l -110,-64 Z" />
  <line id="line3" style="stroke:#000000;stroke-width:1" x1="210" y1="60" x2="180" y2="45" />
  <line id="line4" style="stroke:#000000;stroke-width:1" x1="90" y1="45" x2="90" y2="90" />
  <line id="line5" style="stroke:#000000;stroke-width:1" x1="90" y1="90" x2="105" y2="105" />
  <line id="line6" style="stroke:#000000;stroke-width:1" x1="105" y1="105" x2="135" y2="60" />
  <line id="line7" style="stroke:#000000;stroke-width:1" x1="90" y1="45" x2="135" y2="60" />
  <line id="line8" style="stroke:#000000;stroke-width:1" x1="135" y1="60" x2="135" y2="45" />
  <line id="line9" style="stroke:#000000;stroke-width:1" x1="181" y1="203" x2="151" y2="203" />
  <line id="line10" style="stroke:#000000;stroke-width:1" x1="150" y1="201" x2="105" y2="171" />
  <circle id="circle11" style="fill:#000000" cx="188.0" cy="105.0" r="17.0" />
  <circle id="circle12" style="fill:none;stroke:#000000;stroke-width:1" cx="276.0" cy="177.0" r="15.0" />
</svg>
