<?xml version="1.0" encoding="UTF-8"?>
<svg xmlns="http://www.w3.org/2000/svg" width="300" height="300" viewBox="0 0 300 300">
  <path id="polygon1" style="fill:#8D8D8D" d="m 146,18 -11,12 -16,12 -14,48 -15,60 15,45 30,30 h 30 l 30,-30 15,-45 -15,-60 -15,-49 -15,-11 -10,-12 Z" />
  <path id="polygon2" style="fill:#8D8D8D" d="m 91,176 -24,-28 3,-27 -4,-2 -5,14 -2,-22 h -6 l -1,20 -5,-16 -5,5 4,26 9,41 25,50 26,32 10,-1 -2,-54 17,8 Z" />
  <path id="polygon3" style="fill:#8D8D8D" d="m 185,62 49,22 -11,-33 3,-3 8,13 1,-23 h 5 l 3,22 9,-14 3,3 -11,46 -56,-3 Z" />
  <path id="polygon4" style="fill:#8D8D8D" d="m 115,62 -49,22 11,-33 -3,-3 -8,13 -1,-23 h -5 l -3,22 -9,-14 -3,3 11,46 56,-3 Z" />
  <path id="polygon5" style="fill:#8D8D8D" d="m 200,186 33,-38 -3,-27 4,-2 5,14 2,-22 h 6 l 1,20 5,-16 5,5 -4,26 -9,41 -25,50 -26,32 -10,-1 2,-54 -17,8 Z" />
  <circle id="circle6" style="fill:#000000" cx="166.0" cy="47.0" r="9.0" />
  <circle id="circle7" style="fill:#000000" cx="134.0" cy="47.0" r="9.0" />
</svg>
