<?xml version="1.0" encoding="UTF-8"?>
<svg xmlns="http://www.w3.org/2000/svg" width="300" height="300" viewBox="0 0 300 300">
  <path id="polygon1" style="fill:#FFFFFF" d="m 124,91 26,74 28,-74 Z" />
  <path id="polygon2" style="fill:#345DA9" d="m 134,91 15,15 -15,75 15,15 15,-15 -15,-75 15,-15 Z" />
  <path id="polygon3" style="fill:#345DA9" d="m 180,195 h -60 l -30,90 15,15 h 30 l 15,-75 15,75 h 30 l 15,-15 Z" />
  <path id="polygon4" style="fill:#345DA9" d="m 120,90 h -15 l -45,105 30,15 26,-52 4,37 h 60 l 4,-37 26,52 30,-15 -45,-105 h -15 l -15,15 -15,60 -15,-60 -15,-15 Z" />
  <rect id="rect5" style="fill:#8D8D8D" x="123.0" y="76.0" width="53.0" height="16.0" />
  <circle id="circle6" style="fill:#8D8D8D" cx="150.0" cy="45.0" r="40.0" />
  <path id="polygon7" style="fill:#345DA9" d="m 150,26 -40,15 -13,-12 40,-30 21,7 27,-6 16,6 -5,17 8,11 -24,-1 Z" />
  <line id="line8" style="stroke:#345DA9;stroke-width:1" x1="121" y1="90" x2="194" y2="90" />
  <line id="line9" style="stroke:#000000;stroke-width:1" x1="148" y1="143" x2="150" y2="196" />
  <rect id="rect10" style="fill:#000000" x="116.0" y="186.0" width="66.0" height="12.0" />
  <rect id="rect11" style="fill:#000000" x="109.0" y="183.0" width="15.0" height="44.0" />
  <rect id="rect12" style="fill:#000000" x="176.0" y="183.0" width="19.0" height="22.0" />
  <circle id="circle13" style="fill:#FFFFFF" cx="156.5" cy="147.5" r="4.5" />
  <circle id="circle14" style="fill:#FFFFFF" cx="156.5" cy="170.5" r="4.5" />
  <path id="polygon15" style="fill:#ECEC29" d="m 172,112 h 19 l -6,21 h -6 Z" />
  <path id="polygon16" style="fill:#ECEC29" d="m 175,6 h 19 l -5,15 h -9 Z" />
  <line id="line17" style="stroke:#ECEC29;stroke-width:1" x1="149" y1="24" x2="197" y2="24" />
  <rect id="rect18" style="fill:#000000" x="101.0" y="177.0" width="21.0" height="10.0" />
  <rect id="rect19" style="fill:#000000" x="179.0" y="164.0" width="4.0" height="22.0" />
</svg>
