<?xml version="1.0" encoding="UTF-8"?>
<svg xmlns="http://www.w3.org/2000/svg" width="300" height="300" viewBox="0 0 300 300">
  <path id="polygon1" style="fill:#8D8D8D" d="m 120,165 -45,120 60,-30 h 30 l 60,30 -45,-120 Z" />
  <path id="polygon2" style="fill:#FFFFFF" d="m 135,285 -30,-150 v -30 l 15,-60 15,-30 15,-15 15,15 15,30 15,60 v 30 l -30,150 Z" />
  <rect id="rect3" style="fill:#8D8D8D" x="147.0" y="176.0" width="6.0" height="112.0" />
  <path id="polygon4" style="fill:#8D8D8D" d="m 120,45 h 60 l -15,-30 -15,-15 -15,15 Z" />
  <line id="line5" style="stroke:#8D8D8D;stroke-width:1" x1="105" y1="105" x2="135" y2="120" />
  <line id="line6" style="stroke:#8D8D8D;stroke-width:1" x1="135" y1="120" x2="165" y2="120" />
  <line id="line7" style="stroke:#8D8D8D;stroke-width:1" x1="165" y1="120" x2="195" y2="105" />
  <line id="line8" style="stroke:#8D8D8D;stroke-width:1" x1="105" y1="135" x2="135" y2="150" />
  <line id="line9" style="stroke:#8D8D8D;stroke-width:1" x1="135" y1="150" x2="165" y2="150" />
  <line id="line10" style="stroke:#8D8D8D;stroke-width:1" x1="165" y1="150" x2="195" y2="135" />
</svg>
