<?xml version="1.0" encoding="UTF-8"?>
<svg xmlns="http://www.w3.org/2000/svg" width="300" height="300" viewBox="0 0 300 300">
  <rect id="rect1" style="fill:#8D8D8D" x="144.0" y="0.0" width="15.0" height="105.0" />
  <rect id="rect2" style="fill:#9D6E48" x="195.0" y="45.0" width="60.0" height="210.0" />
  <rect id="rect3" style="fill:none;stroke:#000000;stroke-width:1" x="195.0" y="45.0" width="60.0" height="210.0" />
  <rect id="rect4" style="fill:#9D6E48" x="45.0" y="45.0" width="60.0" height="210.0" />
  <rect id="rect5" style="fill:none;stroke:#000000;stroke-width:1" x="45.0" y="45.0" width="60.0" height="210.0" />
  <line id="line6" style="stroke:#000000;stroke-width:1" x1="45" y1="75" x2="255" y2="75" />
  <line id="line7" style="stroke:#000000;stroke-width:1" x1="45" y1="105" x2="255" y2="105" />
  <line id="line8" style="stroke:#000000;stroke-width:1" x1="45" y1="60" x2="255" y2="60" />
  <line id="line9" style="stroke:#000000;stroke-width:1" x1="45" y1="240" x2="255" y2="240" />
  <line id="line10" style="stroke:#000000;stroke-width:1" x1="45" y1="225" x2="255" y2="225" />
  <line id="line11" style="stroke:#000000;stroke-width:1" x1="45" y1="195" x2="255" y2="195" />
  <line id="line12" style="stroke:#000000;stroke-width:1" x1="45" y1="150" x2="255" y2="150" />
  <path id="polygon13" style="fill:#8D8D8D" d="m 90,60 -30,30 v 150 l 60,15 h 60 l 60,-15 v -150 l -30,-30 Z" />
  <rect id="rect14" style="fill:none;stroke:#000000;stroke-width:1" x="135.0" y="105.0" width="30.0" height="15.0" />
  <path id="polygon15" style="fill:none;stroke:#000000;stroke-width:1" d="m 135,120 -30,15 -4,46 19,44 29,9 31,-9 19,-43 -4,-47 -30,-15 Z" />
  <path id="polygon16" style="fill:none;stroke:#000000;stroke-width:1" d="m 240,90 -30,-30 1,186 29,-6 Z" />
  <path id="polygon17" style="fill:none;stroke:#000000;stroke-width:1" d="m 60,90 30,-30 -1,186 -29,-6 Z" />
  <path id="polygon18" style="fill:none;stroke:#000000;stroke-width:1" d="m 89,247 27,7 67,1 28,-9 v -9 l -122,-1 Z" />
  <rect id="rect19" style="fill:none;stroke:#000000;stroke-width:1" x="90.0" y="60.0" width="120.0" height="30.0" />
  <rect id="rect20" style="fill:none;stroke:#000000;stroke-width:1" x="143.0" y="0.0" width="15.0" height="105.0" />
</svg>
