<?xml version="1.0" encoding="UTF-8"?>
<svg xmlns="http://www.w3.org/2000/svg" width="300" height="300" viewBox="0 0 300 300">
  <path id="polygon1" style="fill:#8D8D8D" d="m 145,94 -8,10 1,4 -4,6 -26,-25 -7,-16 -5,-17 12,-29 -1,-2 -2,1 -17,31 12,38 30,29 -23,-6 -14,-12 -13,-13 -14,-37 -2,-1 -1,2 11,41 28,27 32,10 -41,16 -17,24 -16,23 0,0 h 2 l 36,-38 25,-10 -26,34 -9,42 2,6 18,42 2,1 v -2 l -14,-43 8,-41 12,-12 7,22 16,14 12,2 13,-4 12,-12 7,-23 h 2 l 10,12 9,41 -14,42 v 5 l 3,-3 18,-45 -7,-40 -11,-17 -16,-21 24,9 22,24 13,14 4,1 -3,-6 -31,-40 -40,-17 31,-9 28,-27 12,-39 1,-6 -4,1 -14,39 -25,22 -23,7 26,-26 14,-38 -13,-25 -7,-9 v 3 l 11,30 -10,29 -27,27 -3,-6 v -5 l -7,-8 v 4 l -1,3 h -10 v -8 Z" />
  <path id="polygon2" style="fill:#D73229" d="m 138,157 h 24 l -9,16 9,16 -24,1 10,-16 -9,-16 Z" />
</svg>
