<?xml version="1.0" encoding="UTF-8"?>
<svg xmlns="http://www.w3.org/2000/svg" width="300" height="300" viewBox="0 0 300 300">
  <path id="polygon1" style="fill:#8D8D8D" d="m 153,113 h -20 l -21,9 -14,10 -11,-10 -2,-13 -4,-11 20,-10 9,-11 7,-13 1,-14 -16,14 -9,5 4,-12 5,-10 12,-13 -28,6 -18,19 -5,14 -2,13 3,8 -2,10 v 9 l 5,10 7,9 6,8 8,7 -1,10 -12,-4 -11,-5 -16,-15 -16,-24 2,15 5,15 3,4 14,13 29,12 0,0 6,1 3,4 -28,4 -21,13 -9,10 -6,10 v 6 l 20,-16 18,-13 12,-1 13,-2 h 4 l 5,-1 2,4 -10,5 -20,9 -7,12 -6,11 -3,9 -2,11 2,8 9,-20 15,-24 15,-6 16,-7 4,4 -10,7 -9,6 -5,14 -2,14 1,7 9,10 8,7 -4,-13 -5,-11 5,-19 10,-8 11,-9 16,5 h 17 l 15,-5 20,16 6,22 -10,21 9,-6 8,-9 2,-9 -2,-11 -4,-14 -20,-15 4,-3 32,13 14,22 8,20 3,-11 -3,-14 -10,-17 -6,-8 -28,-13 v -3 l 3,-2 20,3 14,2 21,15 17,17 -4,-14 -11,-12 -17,-14 -21,-5 -11,-2 -1,-2 2,-2 30,-9 20,-19 8,-16 v -16 l -14,23 -17,16 -22,9 -2,-8 14,-15 11,-18 2,-13 -3,-8 1,-24 -13,-21 -19,-13 -8,-2 h -11 l 16,17 6,17 -13,-6 -14,-15 1,12 4,12 9,11 10,10 15,7 -4,5 -3,4 1,13 -11,11 -26,-16 -24,-4 Z" />
  <circle id="circle2" style="fill:#8D8D8D" cx="169.0" cy="110.0" r="5.0" />
  <circle id="circle3" style="fill:#8D8D8D" cx="131.0" cy="110.0" r="5.0" />
</svg>
