<?xml version="1.0" encoding="UTF-8"?>
<svg xmlns="http://www.w3.org/2000/svg" width="300" height="300" viewBox="0 0 300 300">
  <path id="polygon1" style="fill:#8D8D8D" d="m 136,30 13,5 9,11 8,10 -1,20 v 9 l 23,6 4,-16 -2,-1 -4,1 -4,-4 3,-6 6,3 -1,-8 -2,-8 7,-2 v 6 l 3,8 5,-6 -1,-3 5,-5 5,6 -4,4 -3,6 h 7 l 2,-3 4,6 -2,5 -5,-2 -9,5 -2,24 -21,5 7,24 -5,27 25,-4 5,24 5,-2 3,-6 8,4 -2,7 -7,-1 -5,3 7,6 7,1 -1,6 -4,1 -4,-5 -7,-1 v 7 l 3,4 -4,4 -6,-1 v -6 l -1,-9 -5,5 v 3 l -5,2 -3,-5 v -4 l 5,-1 6,-7 -5,-13 -22,10 -10,23 -15,15 -19,18 -6,18 8,15 9,8 -6,-1 -11,-6 -10,-21 1,-14 8,-10 10,-12 11,-20 3,-15 -25,-17 -10,13 3,7 5,3 -3,5 -6,1 -3,-4 2,-5 -2,-4 -5,6 1,4 -7,4 -3,-3 -1,-4 2,-3 h 3 l 3,-8 -7,1 -3,4 -5,-3 -2,-2 3,-6 5,2 7,-1 -2,-6 -6,-4 1,-6 6,1 2,4 5,7 9,-23 17,9 12,4 -5,-22 -1,-18 -19,8 -19,-20 -9,-1 -4,4 -6,-2 -1,-5 3,-4 5,3 4,-4 v -3 l -5,-2 -3,1 -3,-7 6,-4 3,4 1,2 2,2 5,1 v -7 l -3,-5 7,-3 4,4 -3,4 1,10 3,-3 2,-4 6,1 2,6 -4,3 h -3 l -1,4 10,9 21,-14 -3,-5 -9,-10 -5,-11 1,-16 5,-10 8,-10 Z" />
</svg>
