<?xml version="1.0" encoding="UTF-8"?>
<svg xmlns="http://www.w3.org/2000/svg" width="300" height="300" viewBox="0 0 300 300">
  <path id="polygon1" style="fill:#8D8D8D" d="m 148,0 h 12 l 13,2 47,10 3,-1 6,1 5,4 3,9 v 7 l -1,8 -3,5 -3,3 -3,1 h -5 l -3,-2 h -42 l 6,29 2,14 v 14 l 40,26 16,13 10,10 h -12 l -58,-14 -6,31 -9,38 12,20 -15,-3 -4,21 37,41 10,8 -6,-2 h -7 l -31,-11 -13,-20 Z" />
  <path id="polygon2" style="fill:#8D8D8D" d="m 152,0 h -12 l -13,2 -47,10 -3,-1 -6,1 -5,4 -3,9 v 7 l 1,8 3,5 3,3 3,1 h 5 l 3,-2 h 42 l -6,29 -2,14 v 14 l -40,26 -16,13 -10,10 h 12 l 58,-14 6,31 9,38 -12,20 15,-3 4,21 -37,41 -10,8 6,-2 h 7 l 31,-11 13,-20 Z" />
</svg>
