<?xml version="1.0" encoding="UTF-8"?>
<svg xmlns="http://www.w3.org/2000/svg" width="300" height="300" viewBox="0 0 300 300">
  <circle id="circle1" style="fill:#8D8D8D" cx="149.5" cy="149.5" r="33.5" />
  <path id="polygon2" style="fill:#8D8D8D" d="m 149,25 -42,12 -27,34 v 6 l 1,40 6,29 24,-31 8,1 -24,45 4,2 20,-38 4,17 -18,32 4,1 16,-28 5,14 -14,25 4,2 12,-22 6,13 8,-6 2,86 1,16 h 2 l 1,-19 2,-83 8,6 6,-13 12,22 4,-2 -14,-24 5,-15 16,28 4,-1 -18,-33 3,-16 21,38 3,-2 -15,-28 -8,-17 8,-1 23,31 6,-29 2,-45 -28,-35 Z" />
</svg>
