<?xml version="1.0" encoding="UTF-8"?>
<svg xmlns="http://www.w3.org/2000/svg" width="300" height="300" viewBox="0 0 300 300">
  <path id="polygon1" style="fill:#8D8D8D" d="m 150,90 -4,4 -2,4 -6,-17 -9,-18 -8,-11 2,7 3,6 8,15 6,19 -3,2 1,3 1,2 -8,13 -4,11 -19,-13 -3,-7 -6,-7 7,-15 1,-10 v -3 l 4,-10 2,-8 v -12 l -2,-10 -2,-5 -2,9 -4,13 -8,12 v -13 l 3,-13 3,-10 v -3 l -7,1 -13,10 -7,11 -4,11 -1,13 1,12 4,13 10,12 2,8 12,12 14,13 11,6 v 8 h -17 l -15,-9 -5,-4 -4,-5 -8,-8 1,7 5,9 6,8 13,7 16,2 8,1 v 8 l -21,-2 -20,1 -10,10 -6,12 v 3 l 14,-14 5,-4 8,-1 9,-1 10,1 14,4 v 4 l -24,1 -9,7 -8,6 -4,10 -1,7 1,6 3,-6 6,-13 14,-10 24,-2 v 11 l 3,3 -3,5 1,4 2,3 -2,4 1,6 2,4 -1,4 -1,4 -18,13 -1,4 1,6 8,5 7,-1 5,6 8,-1 3,-1 4,3 h 5 l 7,-3 5,2 5,-1 3,-2 1,-4 9,2 7,-8 -3,-9 -9,-6 -6,-4 -2,-3 v -4 l -2,-3 3,-5 v -6 l -2,-3 4,-3 v -4 l -3,-4 3,-3 v -9 v -2 l 22,1 15,11 7,12 4,7 v -11 l -3,-6 -2,-7 -7,-4 -6,-5 -6,-3 h -5 l -17,-2 1,-6 h 7 l 8,-1 16,-1 11,3 11,10 6,5 -1,-6 -9,-11 -3,-2 -2,-3 -20,-2 -22,1 v -3 l 1,-4 21,-2 14,-8 8,-9 5,-11 v -2 l 1,-3 -6,5 -8,11 -17,10 -18,1 -1,-9 15,-9 13,-11 7,-9 5,-10 11,-16 3,-26 -3,-14 -10,-17 -14,-8 -6,-1 4,12 3,15 1,12 -8,-9 -3,-8 -2,-9 -1,-9 -3,8 -2,7 v 17 l 6,15 1,9 2,8 5,9 -9,14 -18,13 -2,-1 -10,-21 1,-5 -1,-3 h -2 l 6,-16 5,-13 6,-14 v -5 v -4 v 9 l -5,5 -10,21 -5,16 -6,-8 Z" />
</svg>
