<?xml version="1.0" encoding="UTF-8"?>
<svg xmlns="http://www.w3.org/2000/svg" width="300" height="300" viewBox="0 0 300 300">
  <path id="polygon1" style="fill:#8D8D8D" d="m 150,17 -11,2 -9,7 6,29 -4,1 -1,2 -4,6 -2,7 v 6 l 3,13 v 5 l -14,18 -21,-8 -20,-1 h -9 l 8,3 v 8 l -8,-1 7,6 1,7 -10,4 10,-1 1,7 -6,9 10,-4 16,-7 14,-6 -1,21 3,13 7,18 -22,12 -20,14 -5,6 6,-3 6,9 -4,6 6,-4 5,4 -2,9 5,-7 7,6 4,11 v -10 l 7,-14 10,-16 16,14 -7,17 -4,18 3,19 14,13 16,5 15,-8 5,-15 -3,-20 -2,-17 -8,-12 16,-13 9,14 9,14 h 2 l 2,7 1,-7 6,-8 3,10 v -10 l 5,-7 4,9 -2,-10 5,-8 9,9 -8,-10 -23,-17 -21,-12 8,-19 3,-20 -1,-5 v -6 l 13,6 16,7 8,3 -4,-6 3,-10 5,5 -5,-10 v -8 l 9,4 -9,-9 v -7 l 10,4 -12,-8 -14,5 -25,8 -10,-12 -6,-7 3,-12 v -12 l -2,-8 -8,-6 6,-30 -10,-6 -4,-2 -5,-1 Z" />
</svg>
