<?xml version="1.0" encoding="UTF-8"?>
<svg xmlns="http://www.w3.org/2000/svg" width="300" height="300" viewBox="0 0 300 300">
  <path id="polygon1" style="fill:#8D8D8D" d="m 148,39 -11,6 -5,12 v 11 l 4,11 -9,6 -12,7 -10,-11 -11,-5 -11,3 -12,6 -11,9 -9,12 -7,11 -4,11 5,8 11,-6 11,-7 12,-8 11,-7 7,3 -6,11 -5,11 -2,12 v 11 l 1,11 3,12 6,11 7,12 -4,11 -8,11 -4,12 -1,11 6,10 11,-4 11,-10 7,-11 4,-9 11,8 11,7 12,-1 11,-7 10,-7 4,12 8,11 12,8 11,2 3,-12 -2,-11 -5,-12 -9,-11 v -11 l 7,-11 5,-12 3,-11 1,-11 -1,-12 -3,-11 -4,-12 -7,-11 11,2 11,7 12,8 11,7 11,4 2,-10 -4,-11 -8,-12 -10,-11 -11,-9 -12,-5 -11,-1 -11,7 -10,7 -11,-7 -5,-7 2,-12 -1,-11 -7,-11 -11,-4 Z" />
</svg>
