<?xml version="1.0" encoding="UTF-8"?>
<svg xmlns="http://www.w3.org/2000/svg" width="300" height="300" viewBox="0 0 300 300">
  <path id="polygon1" style="fill:#8D8D8D" d="m 149,92 -8,3 -4,3 -2,5 v -5 l 2,-8 v -7 l -5,-3 -4,2 -2,8 -2,7 v 8 l 4,8 -4,3 -4,-5 -3,-6 -2,-7 v -8 l -3,-5 -23,-47 -4,-4 -6,-1 -2,3 -1,2 2,8 10,20 -2,2 3,3 11,19 2,11 6,15 10,11 1,3 -10,-8 -10,-11 -1,-3 h -2 l -25,-22 -20,-17 -5,-1 -4,2 -1,3 v 2 l 12,12 13,13 h -2 l -1,-1 6,3 16,16 v 2 l 4,2 16,14 15,9 -2,2 -22,2 -9,2 h -4 l 1,3 -18,13 -7,3 2,3 -19,14 -2,9 4,3 9,-2 10,-10 8,-6 17,-14 7,-2 11,-5 16,-3 -14,8 -12,10 -3,6 -5,7 3,2 -10,23 -5,5 3,2 -11,32 1,7 6,2 2,-1 3,-2 2,-8 3,-9 5,-17 2,-1 4,-12 2,-8 3,-9 4,-2 7,-14 9,-7 -6,12 -3,18 3,12 8,13 11,10 -1,2 v 1 l 5,-2 9,2 3,4 3,-4 10,-1 4,2 -1,-5 16,-14 6,-17 -1,-18 -4,-10 -2,-2 -1,-3 13,15 2,5 4,4 4,11 4,17 3,4 1,3 4,14 4,9 5,8 7,-3 -1,-11 -2,-5 -1,-6 -6,-15 1,1 -1,-1 1,-2 -3,-7 -4,-12 -5,-11 h 2 l -3,-2 -1,-3 -6,-10 -25,-17 23,4 6,4 h 5 l 17,16 4,1 4,5 5,4 13,8 4,-4 v -3 l -2,-6 -17,-13 2,-3 h -2 l -1,-1 -20,-14 -2,-1 h 2 l 0,0 -6,-4 -31,-3 v -3 l 30,-22 4,-2 -2,-2 18,-16 6,-2 -3,-2 23,-21 1,-5 -3,-4 -3,-1 -2,1 -5,4 -19,15 -19,20 -4,1 -9,12 -12,10 -1,-2 v -3 l 8,-6 6,-8 3,-10 2,-12 4,-9 5,-10 4,-2 -2,-1 12,-24 v -7 l -6,-4 -6,5 -5,12 -17,36 -3,2 -2,17 -4,10 -4,3 -4,-4 4,-7 -1,-6 v -7 l -3,-10 -6,-2 -3,1 v 9 l 2,7 1,5 -6,-7 -5,-2 -5,-1 Z" />
</svg>
