<?xml version="1.0" encoding="UTF-8"?>
<svg xmlns="http://www.w3.org/2000/svg" width="300" height="300" viewBox="0 0 300 300">
  <path id="polygon1" style="fill:#8D8D8D" d="m 151,37 -21,9 -5,7 h -6 l -10,7 -1,12 4,5 -5,8 v 13 l -2,5 -17,14 -3,2 -3,-20 4,-12 4,-2 v -6 l -6,-2 -3,3 -2,6 -3,5 -2,-11 2,-7 -4,-4 -6,1 v 10 l 1,2 v 11 l -6,-6 -3,-7 -4,-1 -3,5 v 4 l 4,2 5,12 9,28 4,8 8,8 8,-3 8,-4 -4,16 1,11 4,12 -20,-10 h -11 l -6,9 3,14 10,17 10,13 -18,-15 -9,-9 -6,-8 -6,1 -1,8 7,4 7,8 -13,-5 -12,-7 -4,6 3,4 4,1 6,2 13,9 h -10 l -5,-3 -2,1 h -1 l -1,6 2,2 5,1 h 6 l 15,5 16,7 21,15 14,9 3,-1 4,-2 1,-9 -6,-16 -9,-14 7,5 8,7 17,9 10,2 20,-7 13,-9 9,-6 -11,18 -4,16 2,4 3,3 10,-4 15,-11 21,-12 17,-7 9,-3 8,1 2,-4 -1,-5 -4,-1 -3,1 h -2 l -5,2 6,-8 6,-3 h 5 l 4,-2 v -3 l -2,-5 h -6 l -3,4 -11,6 -6,1 5,-6 2,-3 5,-4 1,-5 -3,-3 -3,1 h -2 l -2,4 -2,5 -26,22 18,-30 4,-11 -1,-8 -10,-5 -8,3 -11,5 -7,5 5,-19 v -13 l -2,-4 -1,-5 9,5 9,2 9,-16 4,-14 5,-15 5,-12 h 3 l 2,-6 -4,-4 -4,1 -2,3 -1,5 -3,3 -2,2 -1,-2 v -10 l 2,-4 -1,-7 -7,-1 -3,8 2,4 -1,10 -6,-5 v -5 l -3,-3 h -3 l -3,5 4,6 2,2 2,9 -3,19 -20,-15 -2,-7 -1,-8 v -5 l -4,-5 4,-10 -3,-11 -9,-5 -2,1 h -1 l -10,-10 -15,-6 Z" />
</svg>
