<?xml version="1.0" encoding="UTF-8"?>
<svg xmlns="http://www.w3.org/2000/svg" width="300" height="300" viewBox="0 0 300 300">
  <path id="polygon1" style="fill:#8D8D8D" d="m 149,47 14,6 7,7 2,3 12,5 3,9 -3,8 -3,4 2,11 11,2 10,1 2,-5 1,-6 v -6 l -5,2 -4,4 -6,-2 -1,-7 5,-3 h 6 l 3,-3 -2,-4 -5,-5 -6,-1 -4,-5 2,-6 6,-1 3,3 2,3 8,2 v -12 l -4,-4 v -7 l 5,-2 5,2 v 6 v 2 l -1,1 4,15 5,-9 1,-8 6,-3 4,3 v 7 l -4,2 -9,25 -1,25 -3,10 -7,2 -23,3 3,14 v 15 l -2,11 26,-13 h 10 l 2,7 -2,11 -5,13 -6,12 -7,13 14,-9 2,-6 v -12 l 4,-3 h 4 v 3 v 7 l 8,-17 1,-10 7,-2 2,6 -5,7 -4,17 14,-10 5,-8 4,1 2,5 -1,3 -9,3 -13,15 h 9 l 2,-2 5,-1 2,2 1,4 -2,4 h -5 l -2,-2 -13,2 -14,7 -21,14 -11,5 -6,-2 -2,-4 2,-8 7,-28 -24,18 -16,7 -17,-7 -17,-11 -12,-5 6,17 6,21 3,14 1,12 -6,2 -11,-8 -17,-15 -16,-12 -21,-6 -6,1 -6,1 -2,-2 v -5 l 3,-2 5,1 0,0 18,3 1,-5 -13,-13 -6,-4 1,-6 5,-1 2,1 2,7 14,12 v -15 l -4,-3 -1,-5 4,-3 4,1 2,4 v 7 l 4,16 1,1 3,-8 3,-2 1,5 -1,13 18,13 -15,-39 -5,-18 2,-11 5,-2 12,3 15,8 -3,-15 -1,-12 -1,-11 -18,11 -10,-8 -6,-9 -11,-11 -10,-7 -4,-1 -1,-4 1,-3 5,-2 3,2 2,6 7,5 4,-1 -1,-11 -4,-7 v -5 l 5,-2 4,2 v 5 l -2,5 5,12 8,-6 v -6 l 4,-4 5,2 1,5 -3,2 -4,4 -4,12 7,9 21,-15 2,-16 -3,-6 -2,-3 v -10 l 4,-5 4,-2 h 5 l 11,-12 10,-5 Z" />
</svg>
