<?xml version="1.0" encoding="UTF-8"?>
<svg xmlns="http://www.w3.org/2000/svg" width="300" height="300" viewBox="0 0 300 300">
  <path id="polygon1" style="fill:#8D8D8D" d="m 150,46 -8,3 -8,7 -6,6 -7,3 -5,6 -1,7 1,6 4,6 -1,9 -24,8 -5,-12 -3,-13 v -6 l 10,-16 6,-1 2,-5 -2,-5 -4,-1 -3,1 -2,5 -1,2 -8,7 -3,-8 1,-8 4,-7 -5,-5 -5,1 -1,8 2,5 -2,12 -8,-6 v -6 l -5,-4 -6,2 v 6 l 4,4 3,1 9,16 2,16 6,32 7,1 h 8 l 19,-3 -3,17 1,22 8,18 -24,-20 -17,-10 h -9 l -4,9 4,12 14,23 21,31 -43,-32 -2,-1 -2,-1 -1,-3 -5,-5 -4,2 -3,4 4,6 7,2 17,16 h -9 l -8,-1 -7,-4 h -4 l -3,3 2,7 6,1 4,-2 10,2 8,4 -11,10 h -4 l -3,2 v 7 l 5,2 4,-1 2,-5 14,-8 8,1 34,13 1,-1 2,-2 -2,-8 -10,-21 -16,-27 38,31 15,4 17,-5 37,-29 -20,32 -8,18 2,8 6,-1 16,-6 16,-7 17,7 2,3 2,3 3,1 6,-4 -2,-7 -5,-1 -13,-9 11,-5 h 10 l 6,1 4,-5 -2,-6 -6,1 -3,3 -19,1 8,-10 10,-7 7,-2 2,-5 -6,-6 -5,3 -1,3 v 2 l -46,33 36,-61 v -9 l -8,-4 h -6 l -9,6 -28,24 5,-14 3,-14 v -14 l -4,-15 14,3 14,1 6,-3 3,-11 3,-16 v -7 l 1,-8 10,-20 6,-3 2,-5 -2,-5 -6,-1 -4,4 v 6 l -8,6 -1,-9 -1,-6 3,-3 v -4 l -2,-4 h -6 l -4,4 2,6 2,2 v 16 l -9,-6 -1,-6 -7,-4 -5,5 1,5 5,3 2,1 11,18 -7,28 -26,-8 v -9 l 3,-7 1,-9 -4,-8 -6,-4 -5,-1 -6,-8 -5,-5 -8,-2 Z" />
</svg>
