<?xml version="1.0" encoding="UTF-8" standalone="no"?>
<svg
   width="300"
   height="300"
   viewBox="0 0 300 300"
   version="1.1"
   id="svg1"
   sodipodi:docname=".plant.svg"
   inkscape:version="1.4.3 (0d15f75042, 2025-12-25)"
   xmlns:inkscape="http://www.inkscape.org/namespaces/inkscape"
   xmlns:sodipodi="http://sodipodi.sourceforge.net/DTD/sodipodi-0.dtd"
   xmlns="http://www.w3.org/2000/svg"
   xmlns:svg="http://www.w3.org/2000/svg">
  <defs
     id="defs1" />
  <sodipodi:namedview
     id="namedview1"
     pagecolor="#ffffff"
     bordercolor="#000000"
     borderopacity="0.25"
     inkscape:showpageshadow="2"
     inkscape:pageopacity="0.0"
     inkscape:pagecheckerboard="0"
     inkscape:deskcolor="#d1d1d1"
     showguides="true"
     inkscape:zoom="1.8691189"
     inkscape:cx="189.66155"
     inkscape:cy="142.58055"
     inkscape:window-width="1920"
     inkscape:window-height="1011"
     inkscape:window-x="0"
     inkscape:window-y="0"
     inkscape:window-maximized="1"
     inkscape:current-layer="svg1">
    <sodipodi:guide
       position="45,105"
       orientation="1,0"
       id="guide1"
       inkscape:locked="false" />
    <sodipodi:guide
       position="255,105"
       orientation="1,0"
       id="guide2"
       inkscape:locked="false" />
    <sodipodi:guide
       position="135,0"
       orientation="1,0"
       id="guide3"
       inkscape:locked="false" />
    <sodipodi:guide
       position="165,0"
       orientation="1,0"
       id="guide4"
       inkscape:locked="false" />
    <sodipodi:guide
       position="150,0"
       orientation="0,-1"
       id="guide5"
       inkscape:locked="false" />
    <sodipodi:guide
       position="150,0"
       orientation="1,0"
       id="guide6"
       inkscape:locked="false" />
    <sodipodi:guide
       position="150,285"
       orientation="0,-1"
       id="guide7"
       inkscape:locked="false" />
    <sodipodi:guide
       position="255,255"
       orientation="0,-1"
       id="guide8"
       inkscape:locked="false" />
    <sodipodi:guide
       position="255,180"
       orientation="0,-1"
       id="guide9"
       inkscape:locked="false" />
    <sodipodi:guide
       position="255,105"
       orientation="0,-1"
       id="guide10"
       inkscape:locked="false" />
    <sodipodi:guide
       position="225,195"
       orientation="0,-1"
       id="guide11"
       inkscape:locked="false" />
    <sodipodi:guide
       position="225,120"
       orientation="0,-1"
       id="guide12"
       inkscape:locked="false" />
    <sodipodi:guide
       position="225,45"
       orientation="0,-1"
       id="guide13"
       inkscape:locked="false" />
    <sodipodi:guide
       position="210,240"
       orientation="0,-1"
       id="guide14"
       inkscape:locked="false" />
    <sodipodi:guide
       position="210,165"
       orientation="0,-1"
       id="guide15"
       inkscape:locked="false" />
    <sodipodi:guide
       position="210,90"
       orientation="0,-1"
       id="guide16"
       inkscape:locked="false" />
    <sodipodi:guide
       position="165,210"
       orientation="0,-1"
       id="guide17"
       inkscape:locked="false" />
    <sodipodi:guide
       position="75,195"
       orientation="1,0"
       id="guide18"
       inkscape:locked="false" />
    <sodipodi:guide
       position="90,240"
       orientation="1,0"
       id="guide19"
       inkscape:locked="false" />
    <sodipodi:guide
       position="210,240"
       orientation="1,0"
       id="guide20"
       inkscape:locked="false" />
    <sodipodi:guide
       position="225,195"
       orientation="1,0"
       id="guide21"
       inkscape:locked="false" />
  </sodipodi:namedview>
  <path
     id="rect1"
     style="fill:#2cd13b"
     d="m 150,15 c 0,0 -26.7508,16.236181 -30,30 -3.63271,15.388418 15,45 15,45 v 15 C 135,105 108.04503,71.152441 90,60 76.55003,51.687461 45,45 45,45 c 0,0 14.188612,44.188612 30,60 15.811388,15.81139 60,30 60,30 v 45 c 0,0 -26.95497,-33.84756 -45,-45 -13.44997,-8.31254 -45,-15 -45,-15 0,0 14.188612,44.18861 30,60 15.811388,15.81139 60,30 60,30 v 45 c 0,0 -26.95497,-33.84756 -45,-45 -13.44997,-8.31254 -45,-15 -45,-15 0,0 14.188612,44.18861 30,60 15.811388,15.81139 60,30 60,30 v 15 h 30 v -15 c 0,0 44.18861,-14.18861 60,-30 15.81139,-15.81139 30,-60 30,-60 0,0 -31.55003,6.68746 -45,15 -18.04503,11.15244 -45,45 -45,45 v -45 c 0,0 44.18861,-14.18861 60,-30 15.81139,-15.81139 30,-60 30,-60 0,0 -31.55003,6.68746 -45,15 -18.04503,11.15244 -45,45 -45,45 v -45 c 0,0 44.18861,-14.18861 60,-30 15.81139,-15.811388 30,-60 30,-60 0,0 -31.55003,6.687461 -45,15 -18.04503,11.152441 -45,45 -45,45 V 90 c 0,0 18.63271,-29.611582 15,-45 -3.2492,-13.763819 -30,-30 -30,-30 z"
     inkscape:label="Plant"
     sodipodi:nodetypes="caccacaccacaccacaccccacaccacaccacaccac" />
</svg>
