<?xml version="1.0" encoding="UTF-8" standalone="no"?>
<svg
   width="300"
   height="300"
   viewBox="0 0 300 300"
   version="1.1"
   id="svg1"
   sodipodi:docname=".wolf.svg"
   inkscape:version="1.4.3 (0d15f75042, 2025-12-25)"
   xmlns:inkscape="http://www.inkscape.org/namespaces/inkscape"
   xmlns:sodipodi="http://sodipodi.sourceforge.net/DTD/sodipodi-0.dtd"
   xmlns="http://www.w3.org/2000/svg"
   xmlns:svg="http://www.w3.org/2000/svg">
  <defs
     id="defs1" />
  <sodipodi:namedview
     id="namedview1"
     pagecolor="#ffffff"
     bordercolor="#000000"
     borderopacity="0.25"
     inkscape:showpageshadow="2"
     inkscape:pageopacity="0.0"
     inkscape:pagecheckerboard="0"
     inkscape:deskcolor="#d1d1d1"
     inkscape:zoom="1.3216667"
     inkscape:cx="240.60529"
     inkscape:cy="196.343"
     inkscape:window-width="1920"
     inkscape:window-height="1011"
     inkscape:window-x="0"
     inkscape:window-y="0"
     inkscape:window-maximized="1"
     inkscape:current-layer="svg1"
     showguides="true">
    <sodipodi:guide
       position="285,192"
       orientation="-1,0"
       id="guide1"
       inkscape:locked="false"
       inkscape:label=""
       inkscape:color="rgb(0,134,229)" />
    <sodipodi:guide
       position="187.34875,25"
       orientation="0,1"
       id="guide2"
       inkscape:locked="false"
       inkscape:label=""
       inkscape:color="rgb(0,134,229)" />
    <sodipodi:guide
       position="5,69.00001"
       orientation="1,0"
       id="guide3"
       inkscape:locked="false" />
    <sodipodi:guide
       position="229.19929,260"
       orientation="0,-1"
       id="guide4"
       inkscape:locked="false" />
  </sodipodi:namedview>
  <path
     id="polygon1"
     style="fill:#8d8d8d;stroke-width:0.999995"
     d="m 228.8254,39.999999 c -3.20713,5.487492 -8.5845,10.059207 -10.32764,16.164463 -0.97006,4.260469 -0.23795,9.757443 -5.58883,10.835536 -10.61099,12.333333 -21.22196,24.666666 -31.83295,36.999992 -4.65925,-0.0427 -10.17319,-4.011833 -13.92787,0.10067 -3.71745,2.60179 -7.15138,6.15351 -12.06216,4.75694 -30.39731,-0.92324 -79.329898,0.66749 -91.357041,2.46271 -12.027143,1.79522 -13.514953,5.30134 -17.265632,6.33915 -12.667598,-0.60319 -21.499676,0.10801 -31.858447,8.98698 C 4.2460582,135.52541 9.7221813,173.42738 8.0244263,194.35522 7.0428339,206.5721 5,223.24361 5,230.99999 c 6.236234,-5.9935 15.280733,-20.19728 19.312099,-33.40571 5.757647,-18.86444 6.116465,-34.79227 8.398247,-37.61356 1.848141,4.34586 22.433366,25.57547 26.726012,41.45181 C 62.794764,213.85359 57.723316,240 57.723316,240 c 11.282746,9.65645 22.429637,19.4745 33.822504,28.99999 3.342049,-0.84199 12.53842,2.46332 8.72218,-3.44973 C 98.026121,262.40959 98.913502,254.80517 94.333307,255 c -6.2112,1.41585 -9.784153,-4.80764 -14.501476,-7.71748 -2.410136,-3.05981 -8.954821,-4.79637 -8.765094,-8.68825 l 4.562611,-15.59428 21.88515,24 c 8.218302,1.72619 16.409462,3.72788 24.869492,3 -2.99557,-3.16357 -5.23295,-7.75747 -8.68453,-10.06084 -4.51475,-1.20972 -11.04574,1.28581 -13.42462,-3.849 -3.346526,-4.99415 -8.174569,-9.57845 -10.634394,-14.81788 l 4.876113,-42.15118 c 21.963971,4.52355 45.789341,12.81912 68.150711,5.61365 3.42456,-0.0516 8.95793,-1.15511 9.05068,1.21981 2.12457,25.01515 4.24913,50.03029 6.37369,75.04544 2.98434,4.66668 5.96868,9.33333 8.95301,14 5.03669,-2.17476 10.88532,-3.22601 13.68035,-8.50256 2.35072,-3.37707 -6.8276,-4.16594 -9.32551,-6.45452 -5.92976,-0.6898 -4.32826,-6.42571 -4.71892,-10.82684 -0.94211,-10.45887 -0.39328,-20.86243 1.21589,-31.22664 0.88571,-7.67943 1.77141,-15.35885 2.65712,-23.03827 1.48311,14.34962 2.96621,28.69922 4.44931,43.04883 6.30027,6.66667 12.60055,13.33333 18.90082,20 3.52897,-2.2542 9.85277,-2.77205 7.95823,-8.39576 1.54814,-5.77826 -6.25466,-4.56262 -9.77294,-6.55151 -2.38103,-5.32259 -5.94439,-10.77732 -7.13831,-16.51798 0.17426,-22.92314 -0.34863,-45.9764 0.26161,-68.81815 5.10554,-17.41391 16.90507,-30.50546 28.58699,-43.7166 12.60055,2.66667 25.46911,11.71702 37.80162,8 6.1491,-1.85334 15.61217,-12.00782 12.93214,-13.99999 0,0 -16.57966,-14.000003 -24.86948,-21.000003 -0.0252,-3.147377 0.63229,-5.924899 -0.42917,-7.738057 -3.00275,-5.129259 -15.43096,-14.603739 -15.43096,-14.603739 0.31281,-7.552734 0.62562,-15.105469 0.93843,-22.658202 -4.0821,3.023437 -8.16419,6.046874 -12.24628,9.070311 -1.22341,-3.690103 -2.44679,-7.380207 -3.67019,-11.070311 z"
     sodipodi:nodetypes="cccccczzzccscacccccccccccccccccccccccccccccsccscccc"
     inkscape:label="Wolf" />
</svg>
