<?xml version="1.0" encoding="UTF-8"?>
<svg xmlns="http://www.w3.org/2000/svg" width="300" height="300" viewBox="0 0 300 300">
  <path id="path54" style="fill:#8d8d8d" d="M 105 90 L 105 90.056641 A 15 15 0 0 0 93.322266 97.486328 L 47.017578 177.48633 A 15 15 0 0 0 52.486328 197.98242 A 15 15 0 0 0 72.982422 192.51367 L 108.96484 130.34375 L 105 284.86523 C 104.78751 293.14678 111.71573 299.86523 120 299.86523 C 128.28427 299.86523 133.6401 293.03712 135 284.86523 L 150 194.72656 L 150 195 L 165 284.86523 C 166.36389 293.03645 171.71573 299.86523 180 299.86523 C 188.28427 299.86523 195.22968 293.14632 195 284.86523 L 191.03516 130.34375 L 227.01758 192.51367 A 15 15 0 0 0 247.51367 197.98242 A 15 15 0 0 0 252.98242 177.48633 L 206.67773 97.486328 A 15 15 0 0 0 195 90.056641 L 195 90 L 193.71094 90 L 193.67969 90 L 105 90 z " />
  <circle id="path13-2" style="fill:#8d8d8d" cx="150" cy="45" r="40" />
</svg>
