<?xml version="1.0" encoding="UTF-8"?>
<svg xmlns="http://www.w3.org/2000/svg" width="300" height="300" viewBox="0 0 300 300">
  <path id="rect1" style="fill:#2cd13b" d="m 150,90 c 0,0 -26.7508,16.23618 -30,30 -3.63271,15.38842 15,45 15,45 v 15 c 0,0 -26.95497,-33.84756 -45,-45 -13.44997,-8.31254 -45,-15 -45,-15 0,0 14.188612,44.18861 30,60 15.811388,15.81139 60,30 60,30 v 45 c 0,0 -26.95497,-33.84756 -45,-45 -13.44997,-8.31254 -45,-15 -45,-15 0,0 14.188612,44.18861 30,60 15.811388,15.81139 60,30 60,30 v 15 h 30 v -15 c 0,0 44.18861,-14.18861 60,-30 15.81139,-15.81139 30,-60 30,-60 0,0 -31.55003,6.68746 -45,15 -18.04503,11.15244 -45,45 -45,45 v -45 c 0,0 44.18861,-14.18861 60,-30 15.81139,-15.81139 30,-60 30,-60 0,0 -31.55003,6.68746 -45,15 -18.04503,11.15244 -45,45 -45,45 v -15 c 0,0 18.63271,-29.61158 15,-45 -3.2492,-13.76382 -30,-30 -30,-30 z" />
</svg>
