<?xml version="1.0" encoding="UTF-8"?>
<svg xmlns="http://www.w3.org/2000/svg" width="300" height="300" viewBox="0 0 300 300">
  <path id="rect16-6-6" style="fill:#ffffff" d="M 149.49326,65.00656 A 82.224998,82.498125 0 0 0 93.237685,87.342094 74.75,74.998297 0 0 0 74.744688,85.011444 74.75,74.998297 0 0 0 1.8996825e-7,160.01509 74.75,74.998297 0 0 0 8.4974837,194.73828 l 16.4244933,40.27331 0.003,42.49902 a 7.4749999,7.4998296 0 0 0 7.475529,7.49931 7.4749999,7.4998296 0 0 0 7.474473,-7.50039 l -0.0036,-51.16678 a 74.75,74.998297 0 0 0 21.927202,7.53146 l 0.0038,53.63355 a 7.4749999,7.4998296 0 0 0 7.475534,7.4993 7.4749999,7.4998296 0 0 0 7.474465,-7.50038 l -0.0038,-52.52614 a 74.75,74.998297 0 0 0 38.98982,-12.2525 82.224998,82.498125 0 0 0 33.76648,7.27477 82.224998,82.498125 0 0 0 9.96662,-0.60811 l 0.004,63.10599 a 7.4749999,7.4998296 0 0 0 7.47554,7.4993 7.4749999,7.4998296 0 0 0 7.47448,-7.50039 l -0.005,-66.37737 a 82.224998,82.498125 0 0 0 10.74305,-4.28386 59.799995,59.998633 0 0 0 6.69844,1.84519 l 0.004,53.81516 a 7.4749999,7.4998296 0 0 0 7.47551,7.49929 7.4749999,7.4998296 0 0 0 7.47448,-7.50034 l -0.004,-52.55156 a 59.799995,59.998633 0 0 0 57.30473,-59.94998 59.799995,59.998633 0 0 0 -1.89708,-14.98977 44.849998,44.998976 0 0 0 24.31817,-40.01059 A 44.849998,44.998976 0 0 0 241.68476,64.999999 44.849998,44.998976 0 0 0 203.94722,85.685813 82.224998,82.498125 0 0 0 149.4931,65.00656 Z" />
  <path id="rect16-0" style="fill:#8d8d8d" d="m 243.75017,72.5 c -10.3694,-10e-7 -19.6469,4.66077 -25.83798,11.995039 -4.08021,-0.159558 -9.13131,-0.164741 -12.91215,0.463294 -7.50001,1.245832 -17.50005,9.966666 -17.50004,14.949999 0,4.983338 5.00001,4.983338 10.00003,4.983328 3.00413,0 8.71575,-1.79909 12.79691,-3.23527 -0.19578,1.46592 -0.29687,2.96182 -0.29687,4.48111 9e-5,4.93956 1.0917,9.81848 3.19726,14.2901 l -0.006,0.006 c 0,0 17.82044,39.27505 20.7071,44.25822 2.88666,4.98317 16.96523,4.74163 19.61725,0.16352 2.65201,-4.57811 20.72272,-44.28937 20.72272,-44.28937 l 0.0605,-0.12848 -0.006,-0.004 c 2.10978,-4.47263 3.20475,-9.35368 3.20704,-14.29594 0,-1.51936 -0.10107,-3.01512 -0.29687,-4.48111 4.08119,1.43621 9.79268,3.23527 12.79691,3.23527 5.00002,0 10.00002,0 10.00002,-4.983328 0,-4.983333 -10.00002,-13.704167 -17.50004,-14.949999 -3.78096,-0.628056 -8.83187,-0.622868 -12.91215,-0.463294 -6.19107,-7.334237 -15.4686,-11.99504 -25.83796,-11.995039 z" />
</svg>
