<?xml version="1.0" encoding="UTF-8"?>
<svg xmlns="http://www.w3.org/2000/svg" width="300" height="300" viewBox="0 0 300 300">
  <path id="polygon5-7" style="fill:#59b03c" d="m 200,200 c 0,0 45,35 45,50 0,15 -20,20 -30,7.5 C 205,245 185,215 185,215 Z" />
  <path id="polygon5" style="fill:#59b03c" d="m 100,200 c 0,0 -45,35 -45,50 0,15 20,20 30,7.5 C 95,245 115,215 115,215 Z" />
  <path id="polygon3-5" style="fill:#59b03c" d="m 185,90 c 0,0 35,-15 60,-15 25,0 37.5,48.81095 25,48.81095 C 257.5,123.81095 257.5,105 245,105 h -45 z" />
  <path id="polygon3" style="fill:#59b03c" d="M 115,90 C 115,90 80,75 55,75 30,75 17.5,123.81095 30,123.81095 42.5,123.81095 42.5,105 55,105 h 45 z" />
  <path id="polygon4" style="fill:#59b03c" d="M 130,90 C 130,90 120,50 120,32.5 120,15 135,0 150,0 165,0 180,15 180,32.5 180,50 170,90 170,90 Z" />
  <path id="polygon6" style="fill:#9d6e48" d="m 150,70 c 50,0 56.53777,19.081749 65,35 10,18.81095 19.13732,86.76182 0,110 -35,42.5 -50,42.5 -65,42.5 -15,0 -30,0 -65,-42.5 C 65.862677,191.76182 75,123.81095 85,105 95,86.18905 100,70 150,70 Z" />
</svg>
