<?xml version="1.0" encoding="UTF-8"?>
<svg xmlns="http://www.w3.org/2000/svg" width="300" height="300" viewBox="0 0 300 300">
  <path id="polygon1" style="fill:#8D8D8D" d="m 33,58 -33,92 30,90 75,45 h 30 l 15,-15 15,15 h 30 l 60,-30 45,-105 -32,-88 -42,-19 -32,-7 -46,-4 -43,3 Z" />
  <line id="line2" style="stroke:#000000;stroke-width:1" x1="106" y1="55" x2="151" y2="62" />
  <line id="line3" style="stroke:#000000;stroke-width:1" x1="157" y1="62" x2="209" y2="57" />
  <path id="polygon4" style="fill:#9D6E48" d="m 152,62 h 6 l 2,-16 -4,-16 -9,-12 -15,8 10,9 6,11 Z" />
  <path id="polygon5" style="fill:none;stroke:#000000;stroke-width:1" d="m 132,25 12,13 3,10 4,14 7,1 1,-16 -4,-17 -8,-12 Z" />
</svg>
