<?xml version="1.0" encoding="UTF-8"?>
<svg xmlns="http://www.w3.org/2000/svg" width="300" height="300" viewBox="0 0 300 300">
  <path id="polygon1" style="fill:#FFFFFF" d="m 63,162 27,45 h 133 l 67,-45 Z" />
  <rect id="rect2" style="fill:#9D6E48" x="150.0" y="32.0" width="7.0" height="130.0" />
  <path id="polygon3" style="fill:#345DA9" d="m 150,34 -19,15 14,-2 2,1 2,1 Z" />
  <path id="polygon4" style="fill:#8D8D8D" d="m 158,37 14,8 16,14 14,20 15,30 3,21 -2,17 -14,9 h -46 l 3,-14 9,-19 v -21 l -1,-14 -4,-26 Z" />
  <path id="polygon5" style="fill:#8D8D8D" d="m 149,66 -7,12 -3,18 2,15 5,28 2,8 h -38 l 3,-16 5,-25 8,-35 Z" />
</svg>
