<?xml version="1.0" encoding="UTF-8"?>
<svg xmlns="http://www.w3.org/2000/svg" width="300" height="300" viewBox="0 0 300 300">
  <path id="polygon1" style="fill:#8D8D8D" d="m 105,255 15,-165 h 60 l 15,165 Z" />
  <path id="polygon2" style="fill:none;stroke:#000000;stroke-width:1" d="m 105,255 15,-165 h 60 l 15,165 Z" />
  <path id="polygon3" style="fill:#8D8D8D" d="m 120,85 -15,-45 h 90 l -15,45 Z" />
  <path id="polygon4" style="fill:none;stroke:#000000;stroke-width:1" d="m 119,85 -15,-45 h 90 l -15,45 Z" />
  <rect id="rect5" style="fill:#8D8D8D" x="105.0" y="75.0" width="90.0" height="30.0" />
  <rect id="rect6" style="fill:none;stroke:#000000;stroke-width:1" x="105.0" y="75.0" width="90.0" height="30.0" />
  <rect id="rect7" style="fill:#8D8D8D" x="90.0" y="255.0" width="120.0" height="45.0" />
  <line id="line8" style="stroke:#000000;stroke-width:1" x1="75" y1="255" x2="225" y2="255" />
  <rect id="rect9" style="fill:none;stroke:#000000;stroke-width:1" x="90.0" y="255.0" width="120.0" height="45.0" />
  <rect id="rect10" style="fill:#8D8D8D" x="134.0" y="13.0" width="31.0" height="10.0" />
  <rect id="rect11" style="fill:#8D8D8D" x="144.0" y="0.0" width="10.0" height="44.0" />
  <path id="polygon12" style="fill:none;stroke:#000000;stroke-width:1" d="m 153,0 h -9 v 13 h -11 v 9 h 11 v 19 h 10 v -19 h 11 v -10 h -12 Z" />
</svg>
