<?xml version="1.0" encoding="UTF-8"?>
<svg xmlns="http://www.w3.org/2000/svg" width="300" height="300" viewBox="0 0 300 300">
  <line id="line1" style="stroke:#000000;stroke-width:1" x1="75" y1="255" x2="225" y2="255" />
  <path id="polygon2" style="fill:#8D8D8D" d="m 90,255 h -30 v -30 l 15,-45 v -15 l -15,-30 -15,-45 15,-15 v -30 l 30,-15 h 30 l 15,15 105,15 15,15 v 15 v 15 l -15,15 -15,-15 -45,15 30,30 15,45 v 15 l -15,45 Z" />
  <path id="polygon3" style="fill:none;stroke:#000000;stroke-width:1" d="m 210,255 h -150 v -30 l 15,-45 v -15 l -15,-30 -15,-45 15,-15 v -30 l 30,-15 h 30 l 15,15 105,15 15,15 v 15 v 15 l -15,15 -15,-15 -45,15 30,30 15,45 v 15 Z" />
  <line id="line4" style="stroke:#000000;stroke-width:1" x1="255" y1="90" x2="240" y2="90" />
  <circle id="circle5" style="fill:#000000" cx="146.0" cy="75.0" r="12.0" />
  <line id="line6" style="stroke:#000000;stroke-width:1" x1="103" y1="34" x2="108" y2="45" />
  <line id="line7" style="stroke:#000000;stroke-width:1" x1="80" y1="41" x2="88" y2="49" />
  <line id="line8" style="stroke:#000000;stroke-width:1" x1="61" y1="53" x2="70" y2="58" />
  <line id="line9" style="stroke:#000000;stroke-width:1" x1="64" y1="75" x2="79" y2="75" />
  <line id="line10" style="stroke:#000000;stroke-width:1" x1="53" y1="100" x2="67" y2="98" />
  <line id="line11" style="stroke:#000000;stroke-width:1" x1="63" y1="126" x2="69" y2="123" />
  <line id="line12" style="stroke:#000000;stroke-width:1" x1="71" y1="148" x2="77" y2="145" />
  <rect id="rect13" style="fill:#8D8D8D" x="90.0" y="255.0" width="120.0" height="45.0" />
  <rect id="rect14" style="fill:none;stroke:#000000;stroke-width:1" x="90.0" y="255.0" width="120.0" height="45.0" />
</svg>
