<?xml version="1.0" encoding="UTF-8"?>
<svg xmlns="http://www.w3.org/2000/svg" width="300" height="300" viewBox="0 0 300 300">
  <path id="polygon1" style="fill:#8D8D8D" d="m 151,286 -17,-4 h -31 l -44,-34 -19,-38 -8,-53 5,-49 31,38 3,-37 12,-37 28,-45 16,28 21,-44 19,30 13,71 15,-55 22,34 9,35 1,77 29,-47 v 45 l -18,62 -25,15 -30,3 Z" />
  <path id="polygon2" style="fill:#F16A15" d="m 126,284 -35,-33 -6,-39 6,-44 12,-36 15,21 7,28 10,-40 16,-45 34,65 10,42 -2,50 -29,33 Z" />
  <path id="polygon3" style="fill:#D73229" d="m 155,284 17,-16 v -25 l -10,-19 -14,-23 -18,32 1,27 4,22 Z" />
</svg>
