<?xml version="1.0" encoding="UTF-8"?>
<svg xmlns="http://www.w3.org/2000/svg" width="300" height="300" viewBox="0 0 300 300">
  <path id="polygon1" style="fill:#8D8D8D" d="m 111,244 4,28 15,14 21,2 17,-11 8,-20 1,-23 -2,-39 -1,-23 -4,-37 7,-31 11,-25 v -24 l -9,-10 2,-13 4,-15 -9,-16 -17,1 -5,15 7,15 -3,12 -12,3 -2,-12 1,-14 -10,-14 -11,2 -4,14 9,13 4,13 -12,-2 -21,9 -11,17 -16,21 1,27 12,19 13,23 11,28 Z" />
  <path id="polygon2" style="fill:#8D8D8D" d="m 97,37 4,7 10,-1 7,-8 -7,-12 -11,-3 -5,5 Z" />
  <path id="polygon3" style="fill:#8D8D8D" d="m 77,52 4,7 10,-1 5,-8 -8,-11 -6,-2 -6,5 Z" />
  <path id="polygon4" style="fill:#8D8D8D" d="m 63,72 4,7 10,-1 2,-8 -6,-7 -5,-3 -5,5 Z" />
</svg>
