<?xml version="1.0" encoding="UTF-8"?>
<svg xmlns="http://www.w3.org/2000/svg" width="300" height="300" viewBox="0 0 300 300">
  <path id="polygon1" style="fill:#8D8D8D" d="m 30,165 -17,-1 -15,-15 2,-14 -2,-16 2,-14 15,-30 h 15 l 28,29 -15,15 v 15 h 15 h 15 l 15,-30 -15,-60 5,-30 25,-15 h 90 l 30,30 -15,60 v 30 l 30,15 15,-15 -13,-14 -2,-16 2,-14 15,-15 h 15 l 13,14 17,16 -2,14 v 15 l 2,16 h -15 v 15 l -17,14 -30,15 -30,-15 v 30 l 30,15 15,15 15,15 v 30 l -30,30 h -60 l -30,-15 -45,-15 -45,15 -15,15 15,-30 45,-15 h 45 h 45 l -30,-15 -45,-30 -30,-30 h -15 l -15,-15 Z" />
  <line id="line2" style="stroke:#000000;stroke-width:1" x1="189" y1="253" x2="215" y2="253" />
  <circle id="circle3" style="fill:#000000" cx="117.0" cy="45.0" r="15.0" />
  <path id="polygon4" style="fill:#000000" d="m 165,105 h -30 l -15,15 -15,-15 30,-30 h 30 l 30,30 -15,15 Z" />
  <circle id="circle5" style="fill:#000000" cx="175.0" cy="45.0" r="15.0" />
</svg>
