<?xml version="1.0" encoding="UTF-8"?>
<svg xmlns="http://www.w3.org/2000/svg" width="300" height="300" viewBox="0 0 300 300">
  <path id="polygon1" style="fill:#8D8D8D" d="m 195,181 -15,15 h -15 l 1,-18 -15,-30 v 15 l -15,15 h -75 l -16,18 h -15 l -14,-18 v -15 l -15,-30 15,-30 30,-15 60,-15 60,-15 30,-30 h 30 l 29,50 16,115 h -15 l -15,-75 h -15 l -15,15 Z" />
  <rect id="rect2" style="fill:#8D8D8D" x="165.0" y="195.0" width="15.0" height="30.0" />
  <rect id="rect3" style="fill:#8D8D8D" x="30.0" y="195.0" width="15.0" height="30.0" />
  <rect id="rect4" style="fill:#000000" x="165.0" y="225.0" width="15.0" height="15.0" />
  <rect id="rect5" style="fill:#000000" x="30.0" y="225.0" width="15.0" height="15.0" />
  <line id="line6" style="stroke:#000000;stroke-width:1" x1="255" y1="90" x2="240" y2="90" />
  <path id="polygon7" style="fill:#8D8D8D" d="m 0,165 v -30 h 15 l -15,30 Z" />
  <path id="polygon8" style="fill:#FFFFFF" d="m 224,122 10,7 8,6 18,3 12,-3 15,-12 2,-15 -6,-19 -7,-9 -9,-7 9,23 1,13 -8,13 -15,5 -14,-8 -11,-8 -4,-11 -11,12 Z" />
</svg>
