<?xml version="1.0" encoding="UTF-8"?>
<svg xmlns="http://www.w3.org/2000/svg" width="300" height="300" viewBox="0 0 300 300">
  <path id="polygon1" style="fill:#8D8D8D" d="m 196,228 2,69 h -18 l -2,-53 -12,-31 h -30 h -30 l -27,14 -6,32 -23,-2 -1,-28 -11,-32 -12,-29 v -31 l 20,-17 55,2 46,-20 34,9 36,10 39,15 38,15 -8,18 h -30 l -15,29 -30,-10 Z" />
  <path id="polygon2" style="fill:#8D8D8D" d="m 74,258 13,41 -24,-2 -14,-41 Z" />
  <path id="polygon3" style="fill:#8D8D8D" d="m 25,135 -10,51 -5,14 13,17 2,-29 10,-47 Z" />
  <path id="polygon4" style="fill:#8D8D8D" d="m 270,150 -17,-50 -22,-6 -18,6 -5,35 Z" />
  <path id="polygon5" style="fill:#8D8D8D" d="m 225,120 -21,-54 3,-37 -22,27 -7,-29 -7,32 -21,-14 15,45 Z" />
  <path id="polygon6" style="fill:#8D8D8D" d="m 225,120 24,-59 -8,-30 24,25 7,-29 8,32 20,-14 -15,45 Z" />
</svg>
