<?xml version="1.0" encoding="UTF-8"?>
<svg xmlns="http://www.w3.org/2000/svg" width="300" height="300" viewBox="0 0 300 300">
  <path id="polygon1" style="fill:#8D8D8D" d="m 144,238 9,17 15,5 28,-3 18,-16 23,-7 11,9 -11,17 -38,18 -45,4 -21,-6 -24,-6 -19,3 -7,10 15,-4 22,3 36,11 44,-6 35,-14 21,-19 5,-16 -9,-12 -20,-5 -21,7 -17,10 -11,8 h -15 l -5,-14 Z" />
  <path id="polygon2" style="fill:#8D8D8D" d="m 120,78 -4,-16 11,-27 12,-19 11,-12 10,12 13,17 10,27 -3,20 Z" />
  <path id="polygon3" style="fill:#8D8D8D" d="m 119,75 h 60 l 16,30 -5,61 3,49 -28,25 h -30 l -29,-27 4,-48 -5,-60 Z" />
  <path id="polygon4" style="fill:#8D8D8D" d="m 167,69 17,-1 9,-4 6,1 3,9 -8,8 -9,-3 -14,1 Z" />
  <path id="polygon5" style="fill:#8D8D8D" d="m 133,69 -17,-1 -9,-4 -6,1 -3,9 8,8 9,-3 14,1 Z" />
  <path id="polygon6" style="fill:#000000" d="m 163,28 8,4 2,8 -4,5 -3,2 Z" />
  <path id="polygon7" style="fill:#000000" d="m 137,28 -8,4 -2,8 4,5 3,2 Z" />
  <path id="polygon8" style="fill:#000000" d="m 150,6 -7,8 h 13 Z" />
  <line id="line9" style="stroke:#8D8D8D;stroke-width:1" x1="161" y1="17" x2="195" y2="10" />
  <line id="line10" style="stroke:#8D8D8D;stroke-width:1" x1="160" y1="22" x2="187" y2="20" />
  <line id="line11" style="stroke:#8D8D8D;stroke-width:1" x1="160" y1="22" x2="201" y2="31" />
  <line id="line12" style="stroke:#8D8D8D;stroke-width:1" x1="140" y1="22" x2="99" y2="31" />
  <line id="line13" style="stroke:#8D8D8D;stroke-width:1" x1="140" y1="22" x2="113" y2="20" />
  <line id="line14" style="stroke:#8D8D8D;stroke-width:1" x1="139" y1="17" x2="105" y2="10" />
</svg>
