<?xml version="1.0" encoding="UTF-8"?>
<svg xmlns="http://www.w3.org/2000/svg" width="300" height="300" viewBox="0 0 300 300">
  <path id="polygon1" style="fill:#8D8D8D" d="m 105,90 15,105 -30,90 15,15 h 30 l 15,-75 15,75 h 30 l 15,-15 -30,-90 15,-105 Z" />
  <path id="polygon2" style="fill:#345DA9" d="m 135,90 15,15 -15,30 15,15 15,-15 -15,-30 15,-15 Z" />
  <path id="polygon3" style="fill:#8D8D8D" d="m 105,90 -45,105 30,15 45,-105 Z" />
  <path id="polygon4" style="fill:#8D8D8D" d="m 195,90 45,105 -30,15 -45,-105 Z" />
  <circle id="circle5" style="fill:#8D8D8D" cx="150.0" cy="45.0" r="40.0" />
  <rect id="rect6" style="fill:#8D8D8D" x="127.0" y="79.0" width="45.0" height="15.0" />
  <path id="polygon7" style="fill:#FFFFFF" d="m 105,90 -45,105 30,15 24,-54 6,39 -30,75 h 120 l -30,-75 6,-40 24,55 30,-15 -45,-105 h -30 l -15,60 -15,-60 Z" />
  <line id="line8" style="stroke:#000000;stroke-width:1" x1="150" y1="148" x2="150" y2="270" />
  <line id="line9" style="stroke:#000000;stroke-width:1" x1="196" y1="90" x2="151" y2="149" />
  <line id="line10" style="stroke:#000000;stroke-width:1" x1="104" y1="90" x2="149" y2="149" />
  <circle id="circle11" style="fill:#FFFFFF" cx="195.0" cy="15.0" r="15.0" />
  <line id="line12" style="stroke:#000000;stroke-width:1" x1="180" y1="15" x2="120" y2="15" />
  <line id="line13" style="stroke:#000000;stroke-width:1" x1="150" y1="195" x2="165" y2="195" />
  <line id="line14" style="stroke:#000000;stroke-width:1" x1="150" y1="240" x2="165" y2="240" />
  <line id="line15" style="stroke:#000000;stroke-width:1" x1="150" y1="150" x2="165" y2="150" />
</svg>
