<?xml version="1.0" encoding="UTF-8"?>
<svg xmlns="http://www.w3.org/2000/svg" width="300" height="300" viewBox="0 0 300 300">
  <circle id="circle1" style="fill:none;stroke:#000000;stroke-width:1" cx="49.0" cy="193.0" r="10.0" />
  <path id="polygon2" style="fill:#FFFFFF" d="m 50,203 35,10 33,14 1,-20 -30,-3 -37,-19 Z" />
  <circle id="circle3" style="fill:#8D8D8D" cx="150.0" cy="45.0" r="40.0" />
  <rect id="rect4" style="fill:#8D8D8D" x="127.0" y="79.0" width="45.0" height="15.0" />
  <path id="polygon5" style="fill:#7C50A4" d="m 90,19 60,18 60,-18 -15,-15 h -90 Z" />
  <path id="polygon6" style="fill:#7C50A4" d="m 120,90 h -15 l -45,105 30,15 30,-45 -30,120 15,15 h 90 l 15,-15 -30,-120 30,45 30,-15 -45,-105 Z" />
  <path id="polygon7" style="fill:#ECEC29" d="m 135,90 h -15 l 30,45 30,-45 h -15 l -15,15 Z" />
  <line id="line8" style="stroke:#D73229;stroke-width:1" x1="195" y1="90" x2="150" y2="135" />
  <line id="line9" style="stroke:#D73229;stroke-width:1" x1="105" y1="90" x2="150" y2="135" />
  <path id="polygon10" style="fill:#FFFFFF" d="m 135,90 15,15 15,-15 Z" />
  <circle id="circle11" style="fill:#FFFFFF" cx="114.0" cy="215.0" r="10.0" />
  <circle id="circle12" style="fill:#FFFFFF" cx="51.0" cy="194.0" r="10.0" />
  <circle id="circle13" style="fill:none;stroke:#000000;stroke-width:1" cx="115.0" cy="215.0" r="9.0" />
  <line id="line14" style="stroke:#D73229;stroke-width:1" x1="208" y1="22" x2="208" y2="57" />
</svg>
