<?xml version="1.0" encoding="UTF-8"?>
<svg xmlns="http://www.w3.org/2000/svg" width="300" height="300" viewBox="0 0 300 300">
  <path id="polygon1" style="fill:#8D8D8D" d="m 105,90 15,105 -30,90 15,15 h 30 l 15,-75 15,75 h 30 l 15,-15 -30,-90 15,-105 Z" />
  <path id="polygon2" style="fill:#FFFFFF" d="m 60,195 30,15 24,-56 6,41 h 60 l 7,-38 23,53 30,-15 -45,-105 h -30 l -15,15 v 45 l -15,-60 h -30 Z" />
  <circle id="circle3" style="fill:#8D8D8D" cx="150.0" cy="45.0" r="40.0" />
  <rect id="rect4" style="fill:#8D8D8D" x="127.0" y="79.0" width="45.0" height="15.0" />
  <path id="polygon5" style="fill:#345DA9" d="m 120,90 v 90 v 15 l -30,90 15,15 h 30 l 15,-75 15,75 h 30 l 15,-15 -30,-90 v -105 l -8,-1 -7,46 h -30 l -8,-45 Z" />
  <path id="polygon6" style="fill:#9D6E48" d="m 116,4 -3,17 -42,12 v 7 l 38,8 8,-14 27,-7 36,-1 8,10 36,-13 -2,-9 -44,2 -11,-16 Z" />
  <line id="line7" style="stroke:#000000;stroke-width:1" x1="225" y1="90" x2="270" y2="90" />
  <line id="line8" style="stroke:#000000;stroke-width:1" x1="225" y1="15" x2="225" y2="90" />
  <line id="line9" style="stroke:#000000;stroke-width:1" x1="270" y1="15" x2="270" y2="90" />
  <line id="line10" style="stroke:#000000;stroke-width:1" x1="247" y1="15" x2="247" y2="90" />
  <rect id="rect11" style="fill:#9D6E48" x="240.0" y="90.0" width="15.0" height="210.0" />
</svg>
