<?xml version="1.0" encoding="UTF-8"?>
<svg xmlns="http://www.w3.org/2000/svg" width="300" height="300" viewBox="0 0 300 300">
  <circle id="circle1" style="fill:none;stroke:#8D8D8D;stroke-width:1" cx="150.0" cy="150.0" r="105.0" />
  <path id="polygon2" style="fill:#8D8D8D" d="m 96,225 54,-165 56,164 -143,-104 h 173 Z" />
  <path id="polygon3" style="fill:#8D8D8D" d="m 120,120 h 75 l -15,60 v 5 l -67,-2 Z" />
  <path id="polygon4" style="fill:none;stroke:#8D8D8D;stroke-width:1" d="m 30,15 -30,30 15,15 15,30 v 15 l -15,60 -12,44 v 16 l 12,30 45,15 h 15 l 24,-14 6,14 15,15 30,15 30,-15 15,-15 8,-14 37,14 h 15 l 30,-15 9,-30 v -15 l -9,-45 -15,-60 v -15 l 15,-30 15,-15 -30,-30 -45,15 h -15 l -60,-15 -60,15 h -15 Z" />
</svg>
