<?xml version="1.0" encoding="UTF-8"?>
<svg xmlns="http://www.w3.org/2000/svg" width="300" height="300" viewBox="0 0 300 300">
  <path id="polygon1" style="fill:none;stroke:#8D8D8D;stroke-width:1" d="m 148,30 -41,3 -33,11 -41,14 -18,47 -15,45 30,90 75,45 h 30 l 15,-15 15,15 h 30 l 60,-30 45,-105 -32,-88 -43,-19 -29,-7 Z" />
  <path id="polygon2" style="fill:#8D8D8D" d="m 33,58 -33,92 30,90 75,45 h 30 l 15,-15 15,15 h 30 l 60,-30 45,-105 -32,-88 -42,-19 -32,-7 -46,-4 -43,3 Z" />
  <path id="polygon3" style="fill:none;stroke:#000000;stroke-width:1" d="m 108,40 -33,17 -33,44 -10,76 47,76 45,32 h 9 l 14,-17 -25,-46 -19,-46 4,-45 15,-45 18,-34 14,-10 39,24 11,35 12,57 -4,51 -24,47 -24,22 -1,5 33,2 38,-30 23,-56 11,-62 -17,-53 -22,-32 -38,-11 -28,-3 -12,3 Z" />
  <path id="polygon4" style="fill:#9D6E48" d="m 133,50 h 38 l -4,-18 -12,-17 -9,-13 -29,8 9,13 4,10 Z" />
  <path id="polygon5" style="fill:none;stroke:#000000;stroke-width:1" d="m 117,10 10,16 2,9 3,14 h 38 l -2,-17 -14,-18 -9,-13 Z" />
</svg>
