<?xml version="1.0" encoding="UTF-8"?>
<svg xmlns="http://www.w3.org/2000/svg" width="300" height="300" viewBox="0 0 300 300">
  <line id="line1" style="stroke:#000000;stroke-width:1" x1="0" y1="240" x2="120" y2="210" />
  <path id="polygon2" style="fill:#8D8D8D" d="m 0,239 270,15 v 15 l -30,15 -15,15 h -165 l -45,-45 Z" />
  <path id="polygon3" style="fill:#FFFFFF" d="m 15,240 15,-45 45,-75 30,-30 v 135 Z" />
  <path id="polygon4" style="fill:#FFFFFF" d="m 135,75 30,105 -15,60 h 105 l 30,-15 -30,-75 -45,-45 Z" />
  <line id="line5" style="stroke:#000000;stroke-width:1" x1="105" y1="90" x2="120" y2="60" />
  <line id="line6" style="stroke:#000000;stroke-width:1" x1="120" y1="45" x2="120" y2="240" />
  <line id="line7" style="stroke:#000000;stroke-width:1" x1="150" y1="240" x2="120" y2="240" />
  <line id="line8" style="stroke:#000000;stroke-width:1" x1="135" y1="75" x2="120" y2="60" />
  <path id="polygon9" style="fill:#8D8D8D" d="m 120,60 -45,-15 45,-15 Z" />
  <path id="polygon10" style="fill:none;stroke:#000000;stroke-width:1" d="m 105,90 -30,30 -45,75 -15,45 90,-15 Z" />
  <path id="polygon11" style="fill:none;stroke:#000000;stroke-width:1" d="m 135,75 30,105 -15,60 h 105 l 30,-15 -30,-75 -45,-45 Z" />
  <path id="polygon12" style="fill:none;stroke:#000000;stroke-width:1" d="m 0,239 60,60 h 165 l 15,-15 30,-15 v -15 Z" />
</svg>
