<?xml version="1.0" encoding="UTF-8"?>
<svg xmlns="http://www.w3.org/2000/svg" width="300" height="300" viewBox="0 0 300 300">
  <path id="polygon1" style="fill:#8D8D8D" d="m 75,30 -15,15 -15,30 v 15 l 15,45 13,21 2,14 -15,70 v 30 l 15,15 h 15 l 15,-30 30,-75 15,-15 h 15 l 15,20 15,85 15,15 30,-15 5,-61 -1,-30 -7,-25 v -11 l 18,-53 v -30 l -30,-30 h -15 l -30,15 h -45 l -45,-15 Z" />
  <path id="polygon2" style="fill:none;stroke:#8D8D8D;stroke-width:1" d="m 75,30 -15,15 -15,30 v 15 l 15,45 13,23 1,12 -14,70 v 30 l 15,15 h 15 l 15,-30 30,-75 15,-15 h 15 l 12,18 18,87 15,15 30,-15 5,-60 -1,-31 -8,-26 v -9 l 19,-54 v -30 l -30,-30 h -15 l -30,15 h -45 l -45,-15 h -15 Z" />
</svg>
