<?xml version="1.0" encoding="UTF-8"?>
<svg xmlns="http://www.w3.org/2000/svg" width="300" height="300" viewBox="0 0 300 300">
  <circle id="circle1" style="fill:#000000" cx="268.0" cy="210.0" r="15.0" />
  <circle id="circle2" style="fill:#000000" cx="235.0" cy="210.0" r="15.0" />
  <circle id="circle3" style="fill:#000000" cx="65.0" cy="210.0" r="15.0" />
  <circle id="circle4" style="fill:#000000" cx="32.0" cy="210.0" r="15.0" />
  <rect id="rect5" style="fill:#000000" x="105.0" y="90.0" width="30.0" height="0.0" />
  <rect id="rect6" style="fill:#000000" x="285.0" y="180.0" width="9.0" height="15.0" />
  <path id="polygon7" style="fill:#8D8D8D" d="m 15,105 v 15 l 30,60 v 15 h 210 v -15 l 30,-60 v -15 Z" />
  <rect id="rect8" style="fill:none;stroke:#8D8D8D;stroke-width:1" x="15.0" y="105.0" width="270.0" height="90.0" />
  <rect id="rect9" style="fill:#000000" x="6.0" y="180.0" width="9.0" height="15.0" />
  <path id="polygon10" style="fill:#8D8D8D" d="m 90,195 15,15 15,-15 Z" />
  <path id="polygon11" style="fill:#8D8D8D" d="m 135,195 15,15 15,-15 Z" />
  <path id="polygon12" style="fill:#8D8D8D" d="m 180,195 15,15 15,-15 Z" />
  <path id="polygon13" style="fill:none;stroke:#000000;stroke-width:1" d="m 15,105 v 15 l 30,60 v 15 h 210 v -15 l 30,-60 v -15 Z" />
  <line id="line14" style="stroke:#000000;stroke-width:1" x1="60" y1="105" x2="60" y2="195" />
  <line id="line15" style="stroke:#000000;stroke-width:1" x1="240" y1="105" x2="240" y2="195" />
  <line id="line16" style="stroke:#000000;stroke-width:1" x1="180" y1="105" x2="180" y2="195" />
  <line id="line17" style="stroke:#000000;stroke-width:1" x1="120" y1="105" x2="120" y2="195" />
  <path id="polygon18" style="fill:#9D6E48" d="m 15,106 45,-23 37,-8 36,-9 53,10 49,3 50,27 Z" />
</svg>
