<?xml version="1.0" encoding="UTF-8"?>
<svg xmlns="http://www.w3.org/2000/svg" width="300" height="300" viewBox="0 0 300 300">
  <rect id="rect1" style="fill:#8D8D8D" x="70.0" y="45.0" width="157.0" height="75.0" />
  <path id="polygon2" style="fill:#8D8D8D" d="m 150,8 -32,2 -22,7 -6,13 -15,105 v 60 l 15,15 h 60 h 60 l 15,-15 v -60 l -16,-105 -8,-13 -22,-7 Z" />
  <path id="polygon3" style="fill:#000000" d="m 94,135 24,-16 h 66 l 20,15 -11,7 h -83 Z" />
  <line id="line4" style="stroke:#000000;stroke-width:1" x1="130" y1="14" x2="168" y2="14" />
  <line id="line5" style="stroke:#000000;stroke-width:1" x1="130" y1="18" x2="168" y2="18" />
  <line id="line6" style="stroke:#000000;stroke-width:1" x1="130" y1="11" x2="168" y2="11" />
  <line id="line7" style="stroke:#000000;stroke-width:1" x1="185" y1="29" x2="194" y2="112" />
  <line id="line8" style="stroke:#000000;stroke-width:1" x1="115" y1="29" x2="106" y2="112" />
  <line id="line9" style="stroke:#000000;stroke-width:1" x1="195" y1="225" x2="210" y2="240" />
  <line id="line10" style="stroke:#000000;stroke-width:1" x1="105" y1="225" x2="90" y2="240" />
  <path id="polygon11" style="fill:#000000" d="m 210,195 h -15 v -45 l 15,-7 Z" />
  <path id="polygon12" style="fill:none;stroke:#000000;stroke-width:1" d="m 90,143 v 52 h 15 v -45 l -15,-7 Z" />
  <path id="polygon13" style="fill:#000000" d="m 90,195 h 15 v -45 l -15,-7 Z" />
  <line id="line14" style="stroke:#8D8D8D;stroke-width:1" x1="210" y1="180" x2="195" y2="180" />
  <line id="line15" style="stroke:#8D8D8D;stroke-width:1" x1="90" y1="180" x2="105" y2="180" />
  <line id="line16" style="stroke:#000000;stroke-width:1" x1="212" y1="44" x2="213" y2="124" />
  <line id="line17" style="stroke:#000000;stroke-width:1" x1="88" y1="44" x2="87" y2="124" />
  <line id="line18" style="stroke:#000000;stroke-width:1" x1="223" y1="130" x2="193" y2="112" />
  <rect id="rect19" style="fill:#8D8D8D" x="225.0" y="133.0" width="19.0" height="6.0" />
  <rect id="rect20" style="fill:#8D8D8D" x="56.0" y="133.0" width="19.0" height="6.0" />
  <rect id="rect21" style="fill:#8D8D8D" x="120.0" y="210.0" width="60.0" height="30.0" />
  <rect id="rect22" style="fill:#8D8D8D" x="93.0" y="238.0" width="117.0" height="32.0" />
  <rect id="rect23" style="fill:#000000" x="200.0" y="217.0" width="24.0" height="61.0" />
  <rect id="rect24" style="fill:#000000" x="76.0" y="217.0" width="24.0" height="61.0" />
  <circle id="circle25" style="fill:none;stroke:#000000;stroke-width:1" cx="150.0" cy="255.0" r="15.0" />
  <line id="line26" style="stroke:#000000;stroke-width:1" x1="77" y1="130" x2="107" y2="112" />
  <rect id="rect27" style="fill:none;stroke:#000000;stroke-width:1" x="107.0" y="149.0" width="85.0" height="61.0" />
  <rect id="rect28" style="fill:#FFFFFF" x="180.0" y="9.0" width="23.0" height="8.0" />
  <rect id="rect29" style="fill:#FFFFFF" x="97.0" y="9.0" width="23.0" height="8.0" />
</svg>
