<?xml version="1.0" encoding="UTF-8"?>
<svg xmlns="http://www.w3.org/2000/svg" width="300" height="300" viewBox="0 0 300 300">
  <path id="polygon1" style="fill:#59B03C" d="m 132,85 2,-21 -4,-7 2,-25 19,-10 20,11 2,24 -4,8 3,22 Z" />
  <path id="polygon2" style="fill:#59B03C" d="m 165,210 h 30 l 45,30 v 15 l -30,30 -15,-30 Z" />
  <path id="polygon3" style="fill:#59B03C" d="m 90,210 -30,30 v 15 l 30,30 15,-30 15,-45 Z" />
  <path id="polygon4" style="fill:#8D8D8D" d="m 119,75 h 60 l 30,26 15,34 -15,90 -54,50 h -12 l -54,-50 -15,-90 14,-36 Z" />
  <path id="polygon5" style="fill:#000000" d="m 151,21 -9,5 h 17 Z" />
  <line id="line6" style="stroke:#000000;stroke-width:1" x1="160" y1="35" x2="164" y2="51" />
  <path id="polygon7" style="fill:#000000" d="m 161,38 1,8 5,-1 Z" />
  <line id="line8" style="stroke:#000000;stroke-width:1" x1="169" y1="63" x2="156" y2="69" />
  <line id="line9" style="stroke:#000000;stroke-width:1" x1="134" y1="64" x2="144" y2="69" />
  <line id="line10" style="stroke:#000000;stroke-width:1" x1="143" y1="69" x2="156" y2="69" />
  <path id="polygon11" style="fill:#000000" d="m 139,38 -1,8 -5,-1 Z" />
  <line id="line12" style="stroke:#000000;stroke-width:1" x1="140" y1="35" x2="136" y2="51" />
  <path id="polygon13" style="fill:#59B03C" d="m 195,90 30,-15 h 30 l 15,15 15,30 v 30 l -45,-45 h -15 h -15 Z" />
  <path id="polygon14" style="fill:#59B03C" d="m 105,90 -30,-15 h -30 l -15,15 -15,30 v 30 l 45,-45 h 15 h 15 Z" />
</svg>
