<?xml version="1.0" encoding="UTF-8"?>
<svg xmlns="http://www.w3.org/2000/svg" width="300" height="300" viewBox="0 0 300 300">
  <circle id="circle1" style="fill:#FFFFFF" cx="150.0" cy="150.0" r="135.0" />
  <circle id="circle2" style="fill:none;stroke:#000000;stroke-width:1" cx="150.0" cy="150.0" r="135.0" />
  <circle id="circle3" style="fill:#8D8D8D" cx="150.0" cy="150.0" r="75.0" />
  <circle id="circle4" style="fill:none;stroke:#000000;stroke-width:1" cx="150.0" cy="150.0" r="75.0" />
  <circle id="circle5" style="fill:#8D8D8D" cx="75.0" cy="75.0" r="15.0" />
  <circle id="circle6" style="fill:#8D8D8D" cx="150.0" cy="45.0" r="15.0" />
  <circle id="circle7" style="fill:#8D8D8D" cx="225.0" cy="75.0" r="15.0" />
  <circle id="circle8" style="fill:#8D8D8D" cx="255.0" cy="150.0" r="15.0" />
  <circle id="circle9" style="fill:#8D8D8D" cx="225.0" cy="225.0" r="15.0" />
  <circle id="circle10" style="fill:#8D8D8D" cx="150.0" cy="255.0" r="15.0" />
  <circle id="circle11" style="fill:#8D8D8D" cx="75.0" cy="225.0" r="15.0" />
  <circle id="circle12" style="fill:#8D8D8D" cx="45.0" cy="150.0" r="15.0" />
  <circle id="circle13" style="fill:none;stroke:#000000;stroke-width:1" cx="45.0" cy="150.0" r="15.0" />
  <circle id="circle14" style="fill:none;stroke:#000000;stroke-width:1" cx="75.0" cy="225.0" r="15.0" />
  <circle id="circle15" style="fill:none;stroke:#000000;stroke-width:1" cx="150.0" cy="255.0" r="15.0" />
  <circle id="circle16" style="fill:none;stroke:#000000;stroke-width:1" cx="225.0" cy="225.0" r="15.0" />
  <circle id="circle17" style="fill:none;stroke:#000000;stroke-width:1" cx="255.0" cy="150.0" r="15.0" />
  <circle id="circle18" style="fill:none;stroke:#000000;stroke-width:1" cx="225.0" cy="75.0" r="15.0" />
  <circle id="circle19" style="fill:none;stroke:#000000;stroke-width:1" cx="150.0" cy="45.0" r="15.0" />
  <circle id="circle20" style="fill:none;stroke:#000000;stroke-width:1" cx="75.0" cy="75.0" r="15.0" />
</svg>
